<svg width="80" height="79" viewBox="0 0 80 79" fill="none" xmlns="http://www.w3.org/2000/svg">
  <g opacity="0.5">
    <g clip-path="url(#clip0_3060_816)">
      <path d="M4.35946 78.4091H54.2561C56.2211 78.4091 57.8202 76.76 57.8202 74.7337V56.3565C57.8202 56.332 57.8083 56.3124 57.8059 56.2879C57.9366 56.2022 58.0721 56.1213 58.2004 56.0306L77.1754 75.5986C77.2848 75.7158 77.4158 75.8093 77.5606 75.8737C77.7055 75.9381 77.8613 75.9721 78.019 75.9738C78.1768 75.9754 78.3332 75.9446 78.4793 75.8832C78.6254 75.8219 78.7582 75.7311 78.8699 75.6162C78.9816 75.5014 79.07 75.3647 79.1299 75.2142C79.1898 75.0638 79.2201 74.9025 79.219 74.7398C79.2178 74.5771 79.1853 74.4163 79.1233 74.2668C79.0612 74.1172 78.9709 73.9819 78.8576 73.8687L60.056 54.4796C61.5988 52.9951 62.8292 51.1994 63.6708 49.204C64.5124 47.2085 64.9473 45.056 64.9483 42.88C64.946 40.2062 64.2904 37.5762 63.0421 35.2328C61.7937 32.8894 59.9929 30.9081 57.8059 29.472C57.8083 29.4475 57.8202 29.4279 57.8202 29.4034V23.2777C57.8202 23.236 57.8012 23.2017 57.7988 23.1625C57.7941 23.1062 57.7798 23.0572 57.7679 23.0033C57.7306 22.833 57.6576 22.6733 57.5541 22.5353C57.5374 22.5132 57.5398 22.4863 57.5232 22.4642L38.5149 0.411648C38.5078 0.404297 38.4983 0.404297 38.4912 0.396946C38.3465 0.240263 38.1634 0.126819 37.9613 0.068608C37.9162 0.0539063 37.8758 0.0490057 37.8283 0.0416548C37.7594 0.0294034 37.6952 0 37.6239 0H4.35946C2.39448 0 0.79541 1.64904 0.79541 3.67543V74.7337C0.79541 76.76 2.39448 78.4091 4.35946 78.4091ZM62.5723 42.88C62.5723 50.3117 56.7082 56.3565 49.5041 56.3565C42.2999 56.3565 36.4359 50.3117 36.4359 42.88C36.4359 35.4483 42.2999 29.4034 49.5041 29.4034C56.7082 29.4034 62.5723 35.4483 62.5723 42.88ZM38.8119 4.44727L53.9877 22.0526H40C39.4772 22.0526 38.8119 21.0234 38.8119 20.2148V4.44727ZM3.17144 3.67543C3.17144 3.3505 3.29661 3.03888 3.5194 2.80912C3.7422 2.57936 4.04438 2.45028 4.35946 2.45028H36.4359V20.2148C36.4359 22.1971 37.9922 24.5028 40 24.5028H55.4442V28.1807C52.5742 26.9427 49.4078 26.631 46.3625 27.2867C43.3173 27.9424 40.5364 29.5348 38.3866 31.8537H13.8636C13.5485 31.8537 13.2463 31.9828 13.0235 32.2125C12.8007 32.4423 12.6756 32.7539 12.6756 33.0788C12.6756 33.4038 12.8007 33.7154 13.0235 33.9451C13.2463 34.1749 13.5485 34.304 13.8636 34.304H36.5119C35.135 36.5112 34.3134 39.0377 34.1216 41.6548H13.8636C13.5485 41.6548 13.2463 41.7839 13.0235 42.0137C12.8007 42.2434 12.6756 42.555 12.6756 42.88C12.6756 43.2049 12.8007 43.5165 13.0235 43.7463C13.2463 43.976 13.5485 44.1051 13.8636 44.1051H34.1193C34.3122 46.722 35.1337 49.2482 36.5096 51.456H13.8636C13.5485 51.456 13.2463 51.585 13.0235 51.8148C12.8007 52.0446 12.6756 52.3562 12.6756 52.6811C12.6756 53.006 12.8007 53.3177 13.0235 53.5474C13.2463 53.7772 13.5485 53.9062 13.8636 53.9062H38.2179C38.2678 53.9062 38.3106 53.8842 38.3605 53.8768C40.5095 56.2055 43.2936 57.8062 46.3443 58.4669C49.395 59.1276 52.5683 58.8172 55.4442 57.5768V74.7337C55.4442 75.0586 55.319 75.3702 55.0962 75.6C54.8734 75.8297 54.5712 75.9588 54.2561 75.9588H4.35946C3.69417 75.9588 3.17144 75.4197 3.17144 74.7337V3.67543Z" fill="#60686D"/>
      <path d="M13.8636 24.5028H28.1198C28.4348 24.5028 28.737 24.3738 28.9598 24.144C29.1826 23.9142 29.3078 23.6026 29.3078 23.2777C29.3078 22.9528 29.1826 22.6411 28.9598 22.4114C28.737 22.1816 28.4348 22.0526 28.1198 22.0526H13.8636C13.5485 22.0526 13.2463 22.1816 13.0235 22.4114C12.8007 22.6411 12.6755 22.9528 12.6755 23.2777C12.6755 23.6026 12.8007 23.9142 13.0235 24.144C13.2463 24.3738 13.5485 24.5028 13.8636 24.5028ZM13.8636 63.7074H44.752C45.0671 63.7074 45.3692 63.5783 45.592 63.3485C45.8148 63.1188 45.94 62.8072 45.94 62.4822C45.94 62.1573 45.8148 61.8457 45.592 61.6159C45.3692 61.3862 45.0671 61.2571 44.752 61.2571H13.8636C13.5485 61.2571 13.2463 61.3862 13.0235 61.6159C12.8007 61.8457 12.6755 62.1573 12.6755 62.4822C12.6755 62.8072 12.8007 63.1188 13.0235 63.3485C13.2463 63.5783 13.5485 63.7074 13.8636 63.7074Z" fill="#60686D"/>
      <path d="M49.5643 37.0399C47.756 37.0399 46.5848 37.808 45.6653 39.1779C45.4985 39.4264 45.5499 39.7671 45.7826 39.9501L46.7599 40.7183C46.9949 40.9031 47.3292 40.8599 47.5132 40.6209C48.0806 39.8838 48.5016 39.4594 49.388 39.4594C50.0849 39.4594 50.947 39.9245 50.947 40.6252C50.947 41.1549 50.5252 41.4269 49.8371 41.8269C49.0346 42.2934 47.9726 42.8739 47.9726 44.3262V44.5561C47.9726 44.8674 48.2161 45.1198 48.5163 45.1198H50.1581C50.4584 45.1198 50.7018 44.8674 50.7018 44.5561V44.4205C50.7018 43.4138 53.5397 43.3719 53.5397 40.6477C53.5397 38.5961 51.4872 37.0399 49.5643 37.0399ZM49.3372 45.8117C48.4719 45.8117 47.768 46.5416 47.768 47.4388C47.768 48.3359 48.4719 49.0658 49.3372 49.0658C50.2025 49.0658 50.9065 48.3359 50.9065 47.4388C50.9065 46.5416 50.2025 45.8117 49.3372 45.8117Z" fill="#7B6D75"/>
    </g>
  </g>
  <defs>
    <clipPath id="clip0_3060_816">
      <rect width="78.4091" height="78.4091" fill="white" transform="translate(0.79541)"/>
    </clipPath>
  </defs>
</svg>
