<?xml version="1.0" encoding="UTF-8" ?>
<!DOCTYPE svg PUBLIC "-//W3C//DTD SVG 1.1//EN" "http://www.w3.org/Graphics/SVG/1.1/DTD/svg11.dtd">
<svg width="1199pt" height="475pt" viewBox="0 0 1199 475" version="1.1" xmlns="http://www.w3.org/2000/svg">
<g id="#111111ff">
<!--<path fill="#111111" opacity="1.00" d=" M 0.00 0.00 L 1199.00 0.00 L 1199.00 475.00 L 0.00 475.00 L 0.00 0.00 M 398.80 24.72 C 392.29 27.48 387.53 32.81 382.15 37.17 C 337.60 75.63 292.99 114.01 248.45 152.48 C 236.08 137.22 223.58 122.06 211.20 106.81 C 205.96 100.71 201.33 94.09 195.66 88.38 C 187.81 81.00 175.91 79.47 165.90 82.73 C 156.08 86.54 148.94 95.64 147.27 106.00 C 136.78 148.61 126.35 191.23 115.88 233.84 C 115.05 237.60 113.98 241.30 113.11 245.06 C 104.43 280.72 95.57 316.34 86.92 352.02 C 84.11 363.42 81.20 374.80 78.53 386.24 C 77.27 392.11 74.92 397.85 75.30 403.96 C 75.03 417.11 85.30 429.25 98.06 431.88 C 107.17 434.08 116.92 431.05 123.83 424.90 C 171.05 384.12 218.37 343.45 265.56 302.64 C 281.28 321.87 296.99 341.11 312.69 360.36 C 315.98 364.76 320.01 368.64 324.91 371.22 C 326.33 371.77 327.72 372.38 329.13 372.99 C 335.40 374.89 342.08 374.55 348.23 372.37 C 356.31 368.99 362.97 362.29 365.46 353.80 C 369.10 340.99 371.63 327.90 375.14 315.06 C 375.37 313.99 375.59 312.93 375.82 311.86 C 376.20 310.53 376.54 309.18 376.89 307.83 C 379.39 297.95 381.62 288.00 384.10 278.10 C 384.44 276.76 384.78 275.42 385.17 274.09 C 385.40 273.03 385.64 271.97 385.88 270.92 C 386.26 269.58 386.58 268.22 386.93 266.88 C 389.96 254.57 392.85 242.23 395.95 229.95 C 398.78 219.30 401.10 208.52 403.81 197.84 C 406.76 186.63 409.34 175.33 412.11 164.08 C 412.41 162.73 412.71 161.39 413.04 160.06 C 413.41 158.73 413.76 157.41 414.16 156.09 C 414.37 155.02 414.60 153.94 414.83 152.87 C 417.88 141.70 420.23 130.36 423.12 119.15 C 423.45 117.78 423.80 116.43 424.19 115.08 C 424.40 114.02 424.63 112.96 424.87 111.90 C 428.52 98.33 431.42 84.57 434.98 70.97 C 436.83 63.07 439.90 55.09 438.46 46.85 C 436.89 36.06 428.48 26.95 418.16 23.77 C 416.78 23.48 415.42 23.16 414.08 22.78 C 411.35 22.48 408.60 22.51 405.87 22.71 C 403.50 23.34 401.14 24.01 398.80 24.72 M 930.53 52.61 C 920.04 61.58 913.15 73.86 907.17 86.09 C 896.44 108.60 889.32 132.69 884.54 157.12 C 877.96 192.21 872.89 228.24 877.31 263.92 C 868.71 273.79 859.41 283.73 847.22 289.10 C 847.94 282.39 848.15 275.45 846.03 268.96 C 843.06 260.09 837.17 252.62 831.91 245.02 C 826.36 236.96 818.60 229.88 816.13 220.12 C 814.68 210.06 820.85 201.29 824.22 192.30 C 825.26 189.00 826.94 184.11 823.24 181.86 C 818.27 179.34 812.41 179.84 807.01 180.01 C 799.18 180.41 791.20 184.51 787.91 191.91 C 781.92 205.44 775.99 219.01 769.38 232.25 C 764.19 229.42 758.41 231.68 753.04 232.52 C 743.16 234.51 733.22 236.31 723.15 236.93 C 727.78 225.21 731.59 212.53 729.68 199.81 C 728.70 192.84 724.25 185.96 717.28 183.81 C 709.74 181.60 701.29 183.42 694.89 187.85 C 677.54 200.06 672.22 225.26 681.36 244.07 C 673.15 258.48 664.06 272.37 654.75 286.09 C 652.54 256.09 650.71 226.05 650.56 195.96 C 650.39 191.59 649.37 186.19 644.86 184.29 C 639.18 182.14 632.43 182.24 626.96 184.97 C 620.92 188.24 618.50 195.10 616.20 201.13 C 605.53 229.99 593.51 258.35 580.43 286.19 C 578.34 256.82 576.37 227.42 576.33 197.96 C 576.21 193.46 575.60 188.12 571.52 185.39 C 566.63 182.22 560.42 182.64 554.89 183.31 C 549.59 183.92 544.04 186.79 542.25 192.13 C 539.93 199.16 540.93 206.70 540.87 213.97 C 541.00 230.91 541.75 247.84 542.95 264.74 C 536.32 271.65 528.73 277.63 520.42 282.40 C 508.19 289.56 493.85 294.90 479.50 292.20 C 471.52 291.01 463.90 286.55 460.04 279.29 C 470.55 276.66 480.95 273.41 490.75 268.75 C 501.36 263.81 511.20 256.47 517.30 246.31 C 524.42 234.89 525.93 220.35 522.29 207.49 C 518.83 195.45 508.03 186.26 495.78 184.09 C 481.79 181.67 466.91 184.37 454.76 191.75 C 440.10 200.40 429.69 215.05 424.20 230.98 C 418.74 247.35 417.84 265.45 422.62 282.10 C 427.23 298.20 439.72 311.70 455.42 317.56 C 471.52 323.50 489.41 323.75 506.03 319.85 C 521.08 316.02 534.68 307.92 546.79 298.36 C 548.80 305.63 551.69 313.29 557.99 317.93 C 564.58 323.01 573.69 323.38 581.44 321.16 C 588.98 319.08 594.70 313.26 598.97 306.96 C 608.30 293.09 614.06 277.24 620.10 261.76 C 620.92 271.19 621.22 280.66 622.37 290.06 C 623.34 297.76 624.75 305.65 628.73 312.43 C 631.73 317.57 637.07 321.33 643.00 322.10 C 652.34 323.53 662.13 320.30 669.02 313.90 C 677.81 305.88 684.54 295.95 691.20 286.18 C 696.09 279.08 700.73 271.81 705.32 264.52 C 718.89 268.55 733.38 268.94 747.28 266.53 C 742.69 272.48 737.92 278.30 733.26 284.20 C 729.35 289.16 728.38 296.68 732.13 301.99 C 734.64 306.02 740.13 307.14 744.42 305.54 C 749.75 303.66 753.24 298.98 757.11 295.13 C 770.16 281.88 781.03 266.57 789.50 250.01 C 798.92 261.15 808.83 273.56 809.63 288.77 C 800.78 287.77 791.53 285.56 782.83 288.60 C 775.30 291.12 770.06 299.03 770.67 306.95 C 771.15 316.20 778.72 323.65 787.08 326.63 C 796.65 329.83 807.29 329.63 816.87 326.58 C 821.86 325.04 826.07 321.95 830.35 319.09 C 842.17 318.15 854.36 316.68 864.95 310.89 C 872.92 306.62 879.57 300.36 885.75 293.85 C 889.84 303.11 895.97 311.91 904.93 317.02 C 916.10 323.48 929.83 323.47 942.09 320.58 C 954.31 317.79 964.65 310.17 973.89 302.04 C 977.11 308.98 981.37 316.03 988.41 319.64 C 997.28 324.56 1008.75 322.67 1016.57 316.56 C 1028.66 307.78 1034.88 293.46 1038.92 279.53 C 1037.71 292.07 1035.36 304.48 1033.43 316.93 C 1030.61 319.90 1026.94 322.05 1023.84 324.77 C 1002.17 342.22 980.68 360.85 965.71 384.59 C 958.06 397.19 953.41 412.13 954.87 426.96 C 955.79 436.80 961.55 446.08 970.16 451.01 C 979.31 456.33 990.69 456.71 1000.69 453.80 C 1011.48 450.50 1020.30 442.68 1026.76 433.64 C 1034.05 423.63 1039.15 412.26 1043.77 400.83 C 1053.33 376.14 1059.40 350.26 1064.32 324.29 C 1078.49 314.81 1092.63 305.26 1106.79 295.76 C 1112.29 291.91 1118.10 288.48 1123.38 284.31 C 1129.13 279.84 1130.31 271.86 1129.38 265.05 C 1128.78 261.86 1127.64 258.25 1124.67 256.49 C 1121.53 254.74 1117.81 256.13 1114.99 257.84 C 1099.58 267.63 1085.00 278.63 1070.26 289.37 C 1073.64 268.52 1076.85 247.64 1080.52 226.84 C 1082.35 215.57 1084.42 204.31 1085.51 192.93 C 1085.97 189.48 1084.86 185.14 1081.13 184.07 C 1075.14 182.54 1068.62 182.89 1062.77 184.80 C 1056.45 186.97 1053.32 193.51 1051.62 199.51 C 1046.84 216.74 1041.67 233.95 1034.19 250.24 C 1029.87 259.69 1025.19 269.32 1017.67 276.67 C 1015.48 278.86 1012.02 280.88 1009.00 279.09 C 1005.45 276.66 1005.53 271.83 1005.40 267.99 C 1005.67 255.81 1008.42 243.87 1010.44 231.90 C 1012.51 219.47 1016.42 207.45 1018.80 195.08 C 1019.46 191.96 1019.61 188.18 1017.22 185.73 C 1014.87 183.27 1011.14 183.27 1007.99 183.14 C 1001.99 183.29 995.42 183.58 990.43 187.35 C 984.97 191.72 982.86 198.70 980.92 205.13 C 974.47 225.40 970.82 246.53 970.11 267.79 C 962.23 275.99 954.33 285.48 942.90 288.55 C 936.21 290.20 928.13 291.16 922.43 286.45 C 916.83 281.82 915.17 274.32 913.72 267.54 C 937.74 234.53 958.39 198.81 972.53 160.42 C 980.04 140.09 985.49 118.76 986.16 97.01 C 986.29 83.29 985.34 68.84 978.43 56.64 C 974.74 49.74 967.96 44.37 960.13 43.17 C 949.48 41.69 938.56 45.64 930.53 52.61 Z" />-->
<!--<path fill="#111111" opacity="1.00" d=" M 943.31 76.37 C 944.91 74.31 947.03 71.86 949.95 72.20 C 952.95 72.61 954.67 75.49 955.58 78.12 C 957.75 84.82 957.57 91.98 957.46 98.94 C 956.83 117.02 952.86 134.84 947.16 151.96 C 938.31 178.41 926.01 203.62 911.61 227.49 C 912.27 202.79 914.97 178.16 919.47 153.87 C 923.21 133.91 927.78 114.03 934.54 94.86 C 936.93 88.47 939.37 81.99 943.31 76.37 Z" />-->
<!--<path fill="#111111" opacity="1.00" d=" M 466.17 220.11 C 470.31 214.73 477.26 211.07 484.14 212.41 C 488.14 213.14 491.46 216.38 492.35 220.34 C 494.01 227.71 491.10 235.58 485.85 240.85 C 477.64 249.13 466.40 253.41 455.30 256.19 C 455.39 243.49 458.14 230.26 466.17 220.11 Z" />-->
<!--<path fill="#111111" opacity="1.00" d=" M 986.81 400.90 C 994.97 381.25 1010.87 366.32 1026.68 352.71 C 1023.56 366.26 1020.14 379.77 1015.54 392.91 C 1012.15 402.43 1008.10 411.87 1001.94 419.97 C 999.90 422.52 997.62 425.08 994.56 426.41 C 991.15 427.87 986.45 426.58 985.09 422.92 C 982.04 415.82 984.09 407.77 986.81 400.90 Z" />-->
</g>
<g id="#ffffffff">
<path fill="#ffffff" opacity="1.00" d=" M 398.80 24.72 C 401.14 24.01 403.50 23.34 405.87 22.71 C 408.60 22.51 411.35 22.48 414.08 22.78 C 415.42 23.16 416.78 23.48 418.16 23.77 C 428.48 26.95 436.89 36.06 438.46 46.85 C 439.90 55.09 436.83 63.07 434.98 70.97 C 431.42 84.57 428.52 98.33 424.87 111.90 C 424.63 112.96 424.40 114.02 424.19 115.08 C 423.80 116.43 423.45 117.78 423.12 119.15 C 420.23 130.36 417.88 141.70 414.83 152.87 C 414.60 153.94 414.37 155.02 414.16 156.09 C 413.76 157.41 413.41 158.73 413.04 160.06 C 412.71 161.39 412.41 162.73 412.11 164.08 C 409.34 175.33 406.76 186.63 403.81 197.84 C 401.10 208.52 398.78 219.30 395.95 229.95 C 392.85 242.23 389.96 254.57 386.93 266.88 C 386.58 268.22 386.26 269.58 385.88 270.92 C 385.64 271.97 385.40 273.03 385.17 274.09 C 384.78 275.42 384.44 276.76 384.10 278.10 C 381.62 288.00 379.39 297.95 376.89 307.83 C 376.54 309.18 376.20 310.53 375.82 311.86 C 375.59 312.93 375.37 313.99 375.14 315.06 C 371.63 327.90 369.10 340.99 365.46 353.80 C 362.97 362.29 356.31 368.99 348.23 372.37 C 342.08 374.55 335.40 374.89 329.13 372.99 C 327.72 372.38 326.33 371.77 324.91 371.22 C 320.01 368.64 315.98 364.76 312.69 360.36 C 296.99 341.11 281.28 321.87 265.56 302.64 C 249.00 282.20 232.26 261.90 215.70 241.46 C 210.37 234.92 204.60 228.60 200.66 221.08 C 197.75 215.65 197.95 209.23 198.62 203.29 C 200.75 193.08 209.37 186.33 216.77 179.79 C 227.30 170.64 237.91 161.60 248.45 152.48 C 292.99 114.01 337.60 75.63 382.15 37.17 C 387.53 32.81 392.29 27.48 398.80 24.72 Z" />
<path fill="#ffffff" opacity="1.00" d=" M 930.53 52.61 C 938.56 45.64 949.48 41.69 960.13 43.17 C 967.96 44.37 974.74 49.74 978.43 56.64 C 985.34 68.84 986.29 83.29 986.16 97.01 C 985.49 118.76 980.04 140.09 972.53 160.42 C 958.39 198.81 937.74 234.53 913.72 267.54 C 915.17 274.32 916.83 281.82 922.43 286.45 C 928.13 291.16 936.21 290.20 942.90 288.55 C 954.33 285.48 962.23 275.99 970.11 267.79 C 970.82 246.53 974.47 225.40 980.92 205.13 C 982.86 198.70 984.97 191.72 990.43 187.35 C 995.42 183.58 1001.99 183.29 1007.99 183.14 C 1011.14 183.27 1014.87 183.27 1017.22 185.73 C 1019.61 188.18 1019.46 191.96 1018.80 195.08 C 1016.42 207.45 1012.51 219.47 1010.44 231.90 C 1008.42 243.87 1005.67 255.81 1005.40 267.99 C 1005.53 271.83 1005.45 276.66 1009.00 279.09 C 1012.02 280.88 1015.48 278.86 1017.67 276.67 C 1025.19 269.32 1029.87 259.69 1034.19 250.24 C 1041.67 233.95 1046.84 216.74 1051.62 199.51 C 1053.32 193.51 1056.45 186.97 1062.77 184.80 C 1068.62 182.89 1075.14 182.54 1081.13 184.07 C 1084.86 185.14 1085.97 189.48 1085.51 192.93 C 1084.42 204.31 1082.35 215.57 1080.52 226.84 C 1076.85 247.64 1073.64 268.52 1070.26 289.37 C 1085.00 278.63 1099.58 267.63 1114.99 257.84 C 1117.81 256.13 1121.53 254.74 1124.67 256.49 C 1127.64 258.25 1128.78 261.86 1129.38 265.05 C 1130.31 271.86 1129.13 279.84 1123.38 284.31 C 1118.10 288.48 1112.29 291.91 1106.79 295.76 C 1092.63 305.26 1078.49 314.81 1064.32 324.29 C 1059.40 350.26 1053.33 376.14 1043.77 400.83 C 1039.15 412.26 1034.05 423.63 1026.76 433.64 C 1020.30 442.68 1011.48 450.50 1000.69 453.80 C 990.69 456.71 979.31 456.33 970.16 451.01 C 961.55 446.08 955.79 436.80 954.87 426.96 C 953.41 412.13 958.06 397.19 965.71 384.59 C 980.68 360.85 1002.17 342.22 1023.84 324.77 C 1026.94 322.05 1030.61 319.90 1033.43 316.93 C 1035.36 304.48 1037.71 292.07 1038.92 279.53 C 1034.88 293.46 1028.66 307.78 1016.57 316.56 C 1008.75 322.67 997.28 324.56 988.41 319.64 C 981.37 316.03 977.11 308.98 973.89 302.04 C 964.65 310.17 954.31 317.79 942.09 320.58 C 929.83 323.47 916.10 323.48 904.93 317.02 C 895.97 311.91 889.84 303.11 885.75 293.85 C 879.57 300.36 872.92 306.62 864.95 310.89 C 854.36 316.68 842.17 318.15 830.35 319.09 C 826.07 321.95 821.86 325.04 816.87 326.58 C 807.29 329.63 796.65 329.83 787.08 326.63 C 778.72 323.65 771.15 316.20 770.67 306.95 C 770.06 299.03 775.30 291.12 782.83 288.60 C 791.53 285.56 800.78 287.77 809.63 288.77 C 808.83 273.56 798.92 261.15 789.50 250.01 C 781.03 266.57 770.16 281.88 757.11 295.13 C 753.24 298.98 749.75 303.66 744.42 305.54 C 740.13 307.14 734.64 306.02 732.13 301.99 C 728.38 296.68 729.35 289.16 733.26 284.20 C 737.92 278.30 742.69 272.48 747.28 266.53 C 733.38 268.94 718.89 268.55 705.32 264.52 C 700.73 271.81 696.09 279.08 691.20 286.18 C 684.54 295.95 677.81 305.88 669.02 313.90 C 662.13 320.30 652.34 323.53 643.00 322.10 C 637.07 321.33 631.73 317.57 628.73 312.43 C 624.75 305.65 623.34 297.76 622.37 290.06 C 621.22 280.66 620.92 271.19 620.10 261.76 C 614.06 277.24 608.30 293.09 598.97 306.96 C 594.70 313.26 588.98 319.08 581.44 321.16 C 573.69 323.38 564.58 323.01 557.99 317.93 C 551.69 313.29 548.80 305.63 546.79 298.36 C 534.68 307.92 521.08 316.02 506.03 319.85 C 489.41 323.75 471.52 323.50 455.42 317.56 C 439.72 311.70 427.23 298.20 422.62 282.10 C 417.84 265.45 418.74 247.35 424.20 230.98 C 429.69 215.05 440.10 200.40 454.76 191.75 C 466.91 184.37 481.79 181.67 495.78 184.09 C 508.03 186.26 518.83 195.45 522.29 207.49 C 525.93 220.35 524.42 234.89 517.30 246.31 C 511.20 256.47 501.36 263.81 490.75 268.75 C 480.95 273.41 470.55 276.66 460.04 279.29 C 463.90 286.55 471.52 291.01 479.50 292.20 C 493.85 294.90 508.19 289.56 520.42 282.40 C 528.73 277.63 536.32 271.65 542.95 264.74 C 541.75 247.84 541.00 230.91 540.87 213.97 C 540.93 206.70 539.93 199.16 542.25 192.13 C 544.04 186.79 549.59 183.92 554.89 183.31 C 560.42 182.64 566.63 182.22 571.52 185.39 C 575.60 188.12 576.21 193.46 576.33 197.96 C 576.37 227.42 578.34 256.82 580.43 286.19 C 593.51 258.35 605.53 229.99 616.20 201.13 C 618.50 195.10 620.92 188.24 626.96 184.97 C 632.43 182.24 639.18 182.14 644.86 184.29 C 649.37 186.19 650.39 191.59 650.56 195.96 C 650.71 226.05 652.54 256.09 654.75 286.09 C 664.06 272.37 673.15 258.48 681.36 244.07 C 672.22 225.26 677.54 200.06 694.89 187.85 C 701.29 183.42 709.74 181.60 717.28 183.81 C 724.25 185.96 728.70 192.84 729.68 199.81 C 731.59 212.53 727.78 225.21 723.15 236.93 C 733.22 236.31 743.16 234.51 753.04 232.52 C 758.41 231.68 764.19 229.42 769.38 232.25 C 775.99 219.01 781.92 205.44 787.91 191.91 C 791.20 184.51 799.18 180.41 807.01 180.01 C 812.41 179.84 818.27 179.34 823.24 181.86 C 826.94 184.11 825.26 189.00 824.22 192.30 C 820.85 201.29 814.68 210.06 816.13 220.12 C 818.60 229.88 826.36 236.96 831.91 245.02 C 837.17 252.62 843.06 260.09 846.03 268.96 C 848.15 275.45 847.94 282.39 847.22 289.10 C 859.41 283.73 868.71 273.79 877.31 263.92 C 872.89 228.24 877.96 192.21 884.54 157.12 C 889.32 132.69 896.44 108.60 907.17 86.09 C 913.15 73.86 920.04 61.58 930.53 52.61 M 943.31 76.37 C 939.37 81.99 936.93 88.47 934.54 94.86 C 927.78 114.03 923.21 133.91 919.47 153.87 C 914.97 178.16 912.27 202.79 911.61 227.49 C 926.01 203.62 938.31 178.41 947.16 151.96 C 952.86 134.84 956.83 117.02 957.46 98.94 C 957.57 91.98 957.75 84.82 955.58 78.12 C 954.67 75.49 952.95 72.61 949.95 72.20 C 947.03 71.86 944.91 74.31 943.31 76.37 M 466.17 220.11 C 458.14 230.26 455.39 243.49 455.30 256.19 C 466.40 253.41 477.64 249.13 485.85 240.85 C 491.10 235.58 494.01 227.71 492.35 220.34 C 491.46 216.38 488.14 213.14 484.14 212.41 C 477.26 211.07 470.31 214.73 466.17 220.11 M 986.81 400.90 C 984.09 407.77 982.04 415.82 985.09 422.92 C 986.45 426.58 991.15 427.87 994.56 426.41 C 997.62 425.08 999.90 422.52 1001.94 419.97 C 1008.10 411.87 1012.15 402.43 1015.54 392.91 C 1020.14 379.77 1023.56 366.26 1026.68 352.71 C 1010.87 366.32 994.97 381.25 986.81 400.90 Z" />
</g>
<g id="#ffb93fff">
<path fill="#ffb93f" opacity="1.00" d=" M 165.90 82.73 C 175.91 79.47 187.81 81.00 195.66 88.38 C 201.33 94.09 205.96 100.71 211.20 106.81 C 223.58 122.06 236.08 137.22 248.45 152.48 C 237.91 161.60 227.30 170.64 216.77 179.79 C 209.37 186.33 200.75 193.08 198.62 203.29 C 197.95 209.23 197.75 215.65 200.66 221.08 C 204.60 228.60 210.37 234.92 215.70 241.46 C 232.26 261.90 249.00 282.20 265.56 302.64 C 218.37 343.45 171.05 384.12 123.83 424.90 C 116.92 431.05 107.17 434.08 98.06 431.88 C 85.30 429.25 75.03 417.11 75.30 403.96 C 74.92 397.85 77.27 392.11 78.53 386.24 C 81.20 374.80 84.11 363.42 86.92 352.02 C 95.57 316.34 104.43 280.72 113.11 245.06 C 113.98 241.30 115.05 237.60 115.88 233.84 C 126.35 191.23 136.78 148.61 147.27 106.00 C 148.94 95.64 156.08 86.54 165.90 82.73 Z" />
</g>
</svg>
