<?xml version="1.0" encoding="UTF-8" standalone="no"?>
<!-- Created with Inkscape (http://www.inkscape.org/) -->

<svg
   version="1.1"
   id="svg2"
   xml:space="preserve"
   width="400"
   height="300"
   viewBox="0 0 4000 2666.6667"
   sodipodi:docname="vecteezy_internet-network-warning-404-error-page-or-file-not-found_.eps"
   xmlns:inkscape="http://www.inkscape.org/namespaces/inkscape"
   xmlns:sodipodi="http://sodipodi.sourceforge.net/DTD/sodipodi-0.dtd"
   xmlns="http://www.w3.org/2000/svg"
   xmlns:svg="http://www.w3.org/2000/svg"><defs
     id="defs6"><clipPath
       clipPathUnits="userSpaceOnUse"
       id="clipPath36"><path
         d="m 6701.17,2206.6 c 0,0 -982.17,3318.9 -824.01,3406.8 158.15,87.8 4035.37,91.3 4035.37,91.3 0,0 -444.63,-3490.6 -568.08,-3498.1 -123.45,-7.4 -2316.32,-15.1 -2643.28,0"
         id="path34" /></clipPath><clipPath
       clipPathUnits="userSpaceOnUse"
       id="clipPath54"><path
         d="m 8959.45,12886.4 c 0,0 -43.97,-7296.5 131.93,-7316.5 175.91,-19.9 12995.02,-99.6 13105.02,0 109.9,99.7 153.9,7376.3 0,7376.3 -153.9,0 -13236.95,-59.8 -13236.95,-59.8"
         id="path52" /></clipPath><clipPath
       clipPathUnits="userSpaceOnUse"
       id="clipPath86"><path
         d="m 25086.1,2212.8 h -3328.8 c -66.7,0 -120.8,54.1 -120.8,120.8 v 3888.3 c 0,66.7 54.1,120.8 120.8,120.8 h 3328.8 c 66.7,0 120.8,-54.1 120.8,-120.8 V 2333.6 c 0,-66.7 -54.1,-120.8 -120.8,-120.8"
         id="path84" /></clipPath><clipPath
       clipPathUnits="userSpaceOnUse"
       id="clipPath98"><path
         d="m 22580.3,6342.7 c 0,0 -47.4,3399.7 15.8,3439.2 63.1,39.4 544.8,78.9 584.3,-15.8 39.5,-94.8 0,-3423.4 0,-3423.4 h -600.1"
         id="path96" /></clipPath><clipPath
       clipPathUnits="userSpaceOnUse"
       id="clipPath112"><path
         d="m 24928.5,6342.7 h -1394.8 v 4906.7 c 0,20.7 16.7,37.4 37.3,37.4 h 1320.1 c 20.7,0 37.4,-16.7 37.4,-37.4 V 6342.7"
         id="path110" /></clipPath><clipPath
       clipPathUnits="userSpaceOnUse"
       id="clipPath160"><path
         d="m 11724.1,13869.6 -529.7,-68.5 c -291.7,136.6 -574.1,225.1 -837.5,197.6 -264.5,-27.6 -416.43,-304.6 -351.2,-491 57.4,-164 533.4,-332.3 738.7,-336.2 205.3,-3.9 517.2,43.4 631.7,145 l 0.4,0.5 h 347.6 v 552.6"
         id="path158" /></clipPath><clipPath
       clipPathUnits="userSpaceOnUse"
       id="clipPath174"><path
         d="m 11194.4,13801.1 c 0,0 -169.8,-15.1 -202.7,-15.9 -118.9,-2.9 -238.1,-9.4 -238.1,-9.4 0,0 -74.1,240.5 -183,191.2 -160,-72.4 22.9,-184.7 22.9,-184.7 0,0 -284.4,47.4 -312.2,49 -27.7,1.7 212.9,-505.9 -43.8,-660 -256.72,-154.2 -542.68,-73 -578.42,326.7 -35.74,399.7 373.72,783.2 750.62,770.2 376.9,-13 784.7,-467.1 784.7,-467.1"
         id="path172" /></clipPath><clipPath
       clipPathUnits="userSpaceOnUse"
       id="clipPath190"><path
         d="m 12391.4,10150.6 c 0,0 -79.1,-106.5 -105.3,-159.1 -26.1,-52.7 -34.5,-316 -29,-315.1 5.5,0.9 63.9,4 76.1,38.8 l 64.7,222.3 c 0,0 4.4,-238.4 -3.5,-255.2 -7.9,-16.9 -145.2,-290.5 -133.1,-299.2 12.1,-8.7 64.1,-40.4 104.6,27.8 40.5,68.2 136.3,244.7 148.1,272.9 11.7,28.2 -187.6,-372 -179.6,-375.2 8,-3.2 59.1,-29.7 79.3,-3.6 20.2,26.1 198.7,310.2 204.6,333.1 3,11.8 -27,-61.8 -55.8,-135.4 -26.7,-68.4 -52.3,-136.8 -49.3,-136.7 1.8,0 5.2,-2.7 9.9,-5.4 11,-6.3 29.1,-12.7 51.5,15.5 31.9,40.2 139.1,256.6 144.3,268 5.1,11.3 3.5,149.1 3.5,149.1 0,0 26.7,-161.8 20.5,-182.9 -6.3,-21.1 -55.4,-143.7 -32.6,-148 17.3,-3.3 47.4,30 71.1,73.4 23.6,43.5 53.7,108.5 51.4,170.3 -2.2,61.8 -116,407.8 -116,407.8 l -325.4,36.8"
         id="path188" /></clipPath><clipPath
       clipPathUnits="userSpaceOnUse"
       id="clipPath208"><path
         d="m 20746.6,13799.8 c 0,0 -3393.6,278.5 -4098.4,426.4 -704.8,147.9 -1292,-173.6 -1292,-173.6 v -721.4 c 0,0 1823.7,-1553.8 2641.5,-1574.2 817.7,-20.4 2528.2,436.1 2541.8,511.1 13.7,75 0,517.9 -68.1,545.2 -32.9,13.1 -577.2,-40.4 -1136.1,-93.9 -598.8,-57.4 -1214.3,-114.8 -1235.4,-90.1 -26.6,31 -409.6,415.6 -745.8,701.9 h 3392.5 v 468.6"
         id="path206" /></clipPath><clipPath
       clipPathUnits="userSpaceOnUse"
       id="clipPath224"><path
         d="m 20821.4,12781.1 c 0,0 58,92.5 166.5,107.7 108.4,15.1 143.7,0 143.7,0 0,0 291.2,-789 238.4,-805.7 -52.9,-16.7 -172.4,-19.5 -208.5,13.9 -36.1,33.3 -310.3,414.8 -310.3,414.8 0,0 17.7,206.3 -29.8,269.3"
         id="path222" /></clipPath><clipPath
       clipPathUnits="userSpaceOnUse"
       id="clipPath242"><path
         d="m 21074.4,13580.6 c 0,0 39.4,99.2 154.8,105.6 115.4,6.3 385.3,-137.3 409.3,-147.5 24.1,-10.1 349.2,-97.6 354.8,-100.4 69.6,-35.2 7.7,-118.2 7.7,-118.2 l -905.3,10.7 -21.3,249.8"
         id="path240" /></clipPath></defs><sodipodi:namedview
     id="namedview4"
     pagecolor="#ffffff"
     bordercolor="#666666"
     borderopacity="1.0"
     inkscape:pageshadow="2"
     inkscape:pageopacity="0.0"
     inkscape:pagecheckerboard="0" /><g
     id="g8"
     inkscape:groupmode="layer"
     inkscape:label="ink_ext_XXXXXX"
     transform="matrix(1.3333333,0,0,-1.3333333,0,2666.6667)"><g
       id="g10"
       transform="scale(0.1)">
    <path
         d="m 10315.6,3983.9 c -1087.55,322.9 -2134.32,742.6 -3040.98,1321 -3916.44,2498.6 -3055.57,8286.4 17.68,11098.6 963.7,881.9 2212.29,1497.2 3523.5,1606.3 1467.4,122.1 3003.7,-338.4 4108.2,-1324.8 1003.6,-896.2 1593.1,-2125.9 2898.5,-2657.1 1514.1,-616 3193.3,-374.7 4780.3,-557.2 3119.4,-358.7 5158,-3092 4469,-6210.9 -798.5,-3614.8 -4121.1,-4419.3 -7341.6,-4545.2 -1867.2,-73.1 -3734.4,114.3 -5572.8,431.8 -1229.4,212.3 -2563.7,458 -3841.8,837.5"
         style="fill:#f6f9ff;fill-opacity:1;fill-rule:nonzero;stroke:none"
         id="path14" />
    <path
         d="m 6689.8,8345.6 c -159.64,-140.2 -397.3,-184.9 -596.96,-112.3 -199.67,72.6 -353.11,259.5 -385.43,469.5 -38.02,247 67.15,543.9 -107.49,722.8 -87.75,89.8 -227.24,120.7 -301.6,221.9 -62.45,85 -63.81,198.7 -62.65,304.2 2.06,187.2 4.12,374.5 6.19,561.7 -83.32,104 -251.43,97.7 -350.91,186.3 -98.41,87.6 -119.76,230.6 -137.41,361.2 -52.13,385.7 -125.12,768.6 -218.55,1146.4 292.02,-85.8 581.07,-178.8 857.87,-305.4 154.48,-70.6 315.98,-156.8 393.5,-308 78,-152 53.02,-333.3 50.65,-504.3 -0.76,-55.2 1.45,-112.2 24.78,-162.2 60.13,-129 225.64,-158.7 348.98,-229.6 136.27,-78.4 231.28,-224.5 247.63,-380.8 14.85,-141.9 -31.27,-286.7 -4.46,-426.8 59.45,-310.7 431.68,-454.1 580.44,-733.2 155.54,-291.9 -96.07,-593.2 -344.58,-811.4"
         style="fill:#2c393f;fill-opacity:1;fill-rule:nonzero;stroke:none"
         id="path16" /><path
         d="m 7456.04,5569.5 c -5.07,0 -9.57,3.6 -10.46,8.8 -58.56,339.2 -263.3,1256.1 -618.93,2298.8 -261.02,765.3 -563.27,1488.7 -898.35,2149.9 -418.78,826.5 -890.3,1557.7 -1401.48,2173.6 -3.75,4.5 -3.13,11.2 1.39,14.9 4.51,3.8 11.21,3.2 14.96,-1.4 512.24,-617.1 984.68,-1349.7 1404.2,-2177.7 335.55,-662.2 638.19,-1386.5 899.52,-2152.8 356.03,-1043.9 561,-1962.1 619.64,-2301.7 0.99,-5.8 -2.88,-11.3 -8.67,-12.3 l -1.82,-0.1"
         style="fill:#2c393f;fill-opacity:1;fill-rule:nonzero;stroke:none"
         id="path18" /><path
         d="m 2078.44,9221.4 c 100.37,-80.8 142.88,-211 193.9,-329.3 51.03,-118.2 128.78,-241.8 253.96,-272.1 135.73,-32.9 278.27,56.8 414.57,26.3 110.39,-24.6 188.63,-121.7 246.95,-218.6 58.32,-96.9 109.03,-203.4 199.12,-271.8 139.84,-106.2 334.01,-92.4 507.94,-68.4 173.93,24 363.25,50.5 514.96,-37.9 184.59,-107.5 253.4,-352.4 436.64,-462.3 77.96,-46.7 169.99,-64.3 260.63,-71.1 270.01,-20 546.06,52.5 771.32,202.8 -13,246.2 -98.65,512.4 -253.42,704.4 -154.78,192 -387.27,325.5 -633.54,338.6 -78.57,4.1 -158.01,-3.5 -235.62,9.4 -326.13,54.3 -495.61,432.9 -797.83,567 -128.4,56.9 -277.67,65.3 -411.61,23 -131.07,-41.5 -248.1,-129.2 -384.79,-143.7 -133.55,-14.2 -262.55,43.7 -391.84,80.1 -247.99,69.7 -449.01,10.9 -691.34,-76.4"
         style="fill:#2c393f;fill-opacity:1;fill-rule:nonzero;stroke:none"
         id="path20" /><path
         d="m 7364.6,5656.5 c -4.74,0 -9.06,3.2 -10.29,8 -155.25,606.9 -502.68,1188.4 -1004.73,1681.7 -431.41,423.8 -985.44,790.8 -1646.71,1090.7 -711.53,322.7 -1532.33,567.3 -2583.1,770 -5.77,1.1 -9.54,6.7 -8.42,12.4 1.12,5.8 6.72,9.5 12.44,8.4 1052.46,-202.9 1874.77,-448.1 2587.86,-771.5 663.54,-300.9 1219.63,-669.3 1652.82,-1094.9 504.82,-495.9 854.22,-1080.9 1010.43,-1691.5 1.46,-5.7 -1.98,-11.5 -7.66,-12.9 l -2.64,-0.4"
         style="fill:#1c056d;fill-opacity:1;fill-rule:nonzero;stroke:none"
         id="path22" /><path
         d="m 7782.7,9232.2 c -155.03,-30 -322.46,12.1 -444.99,111.7 -122.53,99.5 -197.88,254.8 -200.27,412.7 -1.81,120 36,236.7 77.24,349.4 14.11,38.5 28.91,78.8 23.8,119.5 -4.06,32.3 -20.38,61.7 -38.14,89 -66.76,102.6 -159.82,191.8 -195.03,309.1 -62.48,208.2 76.53,432.3 32.96,645.2 -15.18,74.2 -51.76,142 -77.85,213.1 -91.87,250.4 -43.77,547.2 122.48,755.8 234.07,-94 386.81,-343.5 389.13,-595.7 1.16,-125.8 -33.35,-258.9 20.1,-372.7 31.95,-68.1 91.15,-118.6 146.57,-169.4 97.09,-88.9 190.8,-190.8 225.13,-317.9 53.94,-199.7 -49.32,-420 17.62,-615.8 66.42,-194.2 282.78,-309.7 341.54,-506.4 15.74,-52.7 19.01,-108.6 14.56,-163.4 -6.84,-84.3 -34.57,-171.3 -98.06,-227.2 -98.85,-87 -227.49,-12.1 -356.79,-37"
         style="fill:#2c393f;fill-opacity:1;fill-rule:nonzero;stroke:none"
         id="path24" /><path
         d="m 7870.7,5604.2 c -5.46,0 -10.1,4.2 -10.57,9.8 -45.92,539.5 -33.33,1091.8 -21.15,1625.9 16.84,738.7 34.26,1502.6 -103.88,2238.9 -71.44,380.8 -185.67,759.7 -296.13,1126.1 -153.67,509.8 -312.57,1036.8 -357.99,1575.6 -0.5,5.9 3.84,11 9.69,11.5 5.76,0.5 10.99,-3.8 11.49,-9.7 45.23,-536.5 203.81,-1062.6 357.17,-1571.2 110.62,-367 225.01,-746.4 296.66,-1128.3 138.56,-738.5 121.11,-1503.6 104.24,-2243.4 -12.16,-533.5 -24.75,-1085.2 21.08,-1623.6 0.5,-5.9 -3.84,-11 -9.69,-11.5 l -0.92,-0.1"
         style="fill:#1c056d;fill-opacity:1;fill-rule:nonzero;stroke:none"
         id="path26" /><path
         d="m 6701.17,2206.6 c 0,0 -982.17,3318.9 -824.01,3406.8 158.15,87.8 4035.37,91.3 4035.37,91.3 0,0 -444.63,-3490.6 -568.08,-3498.1 -123.45,-7.4 -2316.32,-15.1 -2643.28,0"
         style="fill:#1b3d9e;fill-opacity:1;fill-rule:nonzero;stroke:none"
         id="path28" /><g
         id="g30"><g
           id="g32"
           clip-path="url(#clipPath36)"><path
             d="m 7658.4,5961.4 c 0,0 -1134.28,-1449.1 -1069.83,-1487.8 64.45,-38.6 3250.8,-696 3249.48,-657.3 -1.32,38.6 324.05,1888.4 324.05,1888.4 l -2503.7,256.7"
             style="fill:#2c393f;fill-opacity:1;fill-rule:nonzero;stroke:none"
             id="path38" /></g></g><path
         d="m 16978.9,2699.4 h -2774.3 v 2357.7 h 2774.3 V 2699.4"
         style="fill:#1b3d9e;fill-opacity:1;fill-rule:nonzero;stroke:none"
         id="path40" /><path
         d="M 17893.6,2197.9 H 13357 c -115.2,0 -208.6,93.4 -208.6,208.6 v 84.4 c 0,115.2 93.4,208.5 208.6,208.5 h 4536.6 c 115.2,0 208.5,-93.3 208.5,-208.5 v -84.4 c 0,-115.2 -93.3,-208.6 -208.5,-208.6"
         style="fill:#2c393f;fill-opacity:1;fill-rule:nonzero;stroke:none"
         id="path42" /><path
         d="m 8621.17,13279.5 c 5.88,11.7 17.8,19.1 30.91,19.1 559.51,3.8 13412.22,89.3 13981.62,-0.1 224.5,-35.2 168.7,-8580.8 0,-8907.3 -124,-240.1 -13841.08,-29 -14000.44,0 -196.48,35.7 -293.78,8326.9 -12.09,8888.3"
         style="fill:#6880e4;fill-opacity:1;fill-rule:nonzero;stroke:none"
         id="path44" /><path
         d="m 8959.45,12886.4 c 0,0 -43.97,-7296.5 131.93,-7316.5 175.91,-19.9 12995.02,-99.6 13105.02,0 109.9,99.7 153.9,7376.3 0,7376.3 -153.9,0 -13236.95,-59.8 -13236.95,-59.8"
         style="fill:#d4dfff;fill-opacity:1;fill-rule:nonzero;stroke:none"
         id="path46" /><g
         id="g48"><g
           id="g50"
           clip-path="url(#clipPath54)"><path
             d="m 12501.3,5539.2 c -335.8,1.9 -657.4,3.9 -959.4,5.9 l -884.6,2428.6 c -6.6,18 -22.5,31.1 -41.5,34.2 l -336.7,54.1 894.4,-2514.3 c -1215.02,8.7 -2038.43,17.3 -2082.12,22.2 -117.11,13.3 -136.76,3251.9 -136.82,5415.3 0,0.8 0,1.6 0,2.4 0,0.8 0,1.6 0,2.4 -0.01,1082.7 4.88,1894.9 4.89,1896.4 v 0 c 0,0 4536.65,20.7 8298.55,37.8 l -4756.7,-7385"
             style="fill:#a2b3f3;fill-opacity:1;fill-rule:nonzero;stroke:none"
             id="path56" /><path
             d="m 15910.7,5524.4 c -756.6,2.1 -1517,5.1 -2242.7,8.6 l 4517.1,7395.4 c 779.1,3.5 1500.9,6.8 2111.2,9.5 L 15910.7,5524.4"
             style="fill:#a2b3f3;fill-opacity:1;fill-rule:nonzero;stroke:none"
             id="path58" /><path
             d="m 18172.8,5520.9 c -441.4,0 -901.2,0.5 -1368.8,1.3 l 4400.3,7419.8 c 598.8,2.6 967,4.2 992.1,4.2 61.3,0 91.2,-1153.3 98,-2548 L 19645.7,5523.1 c -454.8,-1.5 -951.2,-2.2 -1472.9,-2.2"
             style="fill:#a2b3f3;fill-opacity:1;fill-rule:nonzero;stroke:none"
             id="path60" /></g></g><path
         d="m 15929,4835.6 c 0,-186.2 -151,-337.1 -337.2,-337.1 -186.2,0 -337.2,150.9 -337.2,337.1 0,186.3 151,337.2 337.2,337.2 186.2,0 337.2,-150.9 337.2,-337.2"
         style="fill:#1b3d9e;fill-opacity:1;fill-rule:nonzero;stroke:none"
         id="path62" /><path
         d="m 12411.7,9733.9 c 16.5,77.1 48.9,135.7 97.1,175.7 48.2,39.9 101.4,60.6 159.3,62 57.9,1.4 113,-15.9 165.4,-51.6 52.3,-35.9 89.5,-91 111.6,-165.5 2.7,-179.2 4.2,-356.3 4.2,-531.4 0,-175.1 2.7,-350.8 8.2,-527.2 121.3,0 239.2,1.3 353.6,4.1 114.4,2.7 224,4.2 328.8,4.2 74.4,-22.1 129.5,-57.3 165.4,-105.5 35.8,-48.3 53,-98.6 51.7,-150.9 -1.4,-52.4 -22.1,-100.7 -62.1,-144.8 -40,-44.1 -98.6,-74.4 -175.7,-91 -107.5,0 -215,-0.7 -322.6,-2 -107.5,-1.4 -215,-0.7 -322.5,2 5.5,-137.8 8.9,-287.4 10.3,-448.6 1.4,-161.3 3.4,-310.9 6.2,-448.7 -5.5,-91 -35.1,-158.6 -88.9,-202.7 -53.8,-44.1 -113.7,-66.1 -179.9,-66.1 -66.1,0 -128.9,22.7 -188.1,68.2 -59.4,45.5 -94.5,112.3 -105.5,200.6 -2.8,140.6 -0.7,288.7 6.2,444.5 6.9,155.8 7.6,304 2.1,444.6 -118.6,2.7 -246.1,8.9 -382.5,18.6 -136.5,9.6 -268.8,29.6 -397,60 -128.2,30.3 -246.1,73 -353.6,128.1 -107.5,55.2 -194.4,128.2 -260.5,219.2 -60.7,85.4 -95.1,177.8 -103.4,277.1 -8.3,99.2 1.3,201.2 28.9,306 27.6,104.7 68.9,210.9 124.1,318.4 55.1,107.5 115.1,210.9 179.9,310.2 64.7,99.2 129.5,192.3 194.3,279.1 64.8,86.9 122,163.4 171.7,229.5 110.2,148.9 223.3,293.6 339.1,434.2 115.7,140.6 231.5,282.6 347.3,426 60.6,49.6 123.4,75.1 188.2,76.5 64.7,1.3 120.5,-14.5 167.5,-47.6 46.8,-33.1 79.2,-80 97.1,-140.6 17.9,-60.6 13.1,-128.2 -14.4,-202.6 -93.8,-115.8 -204.1,-247.5 -330.9,-394.9 -126.8,-147.6 -251.6,-301.9 -374.2,-463.2 -122.7,-161.3 -234.4,-325.3 -335,-492.1 -100.6,-166.8 -171.6,-328.8 -212.9,-485.9 -16.6,-55.2 -10.4,-102.7 18.6,-142.7 28.9,-40 71.6,-73.1 128.2,-99.2 56.4,-26.3 122,-47.6 196.4,-64.1 74.4,-16.6 148.2,-29 221.2,-37.2 73.1,-8.3 140.6,-14.5 202.7,-18.6 62,-4.2 109.6,-7.7 142.6,-10.4 -5.5,173.7 -8.2,348 -8.2,523.1 0,175.1 0,349.5 0,523.2"
         style="fill:#ff643a;fill-opacity:1;fill-rule:nonzero;stroke:none"
         id="path64" /><path
         d="m 15107.9,10560.9 c -71.7,-55.1 -135.8,-135.8 -192.3,-241.9 -56.5,-106.1 -88.9,-218.5 -97.2,-337 -11,-165.4 -22,-332.9 -33,-502.5 -11.1,-169.5 -15.2,-337 -12.4,-502.4 2.7,-165.4 16.5,-328.1 41.3,-488 24.8,-159.9 70.3,-312.9 136.5,-459 41.3,-96.5 102.6,-177.8 184,-244 81.3,-66.2 172.3,-117.2 272.9,-153 100.6,-35.9 207.4,-55.8 320.5,-60 113,-4.1 223.3,6.9 330.9,33.1 107.5,26.2 208.8,68.3 303.9,126.1 95.1,57.9 175.8,132.4 241.9,223.4 46.9,57.9 84.8,138.5 113.7,241.9 29,103.4 50.3,218.4 64.1,345.3 13.8,126.8 22.1,257.7 24.9,392.8 2.7,135.1 2.7,263.3 0,384.6 -2.8,121.3 -5.6,229.5 -8.3,324.6 -2.8,95.2 -4.2,164.8 -4.2,208.9 2.8,132.3 -18.6,255.7 -64,370.1 -45.5,114.4 -108.3,214.3 -188.2,299.8 -80,85.4 -174.4,154.4 -283.3,206.8 -108.9,52.3 -226.1,82.7 -351.5,91 -125.5,8.2 -256.4,-8.3 -392.8,-49.7 -136.5,-41.3 -272.3,-111.6 -407.4,-210.9 z m -690.6,-2733.4 c -35.8,118.5 -71.7,266.7 -107.5,444.5 -35.9,177.8 -62.7,370.1 -80.6,576.9 -18,206.8 -24.2,419 -18.6,636.8 5.4,217.8 29.5,426 72.3,624.5 42.7,198.5 108.2,379 196.4,541.7 88.2,162.7 205.4,290.8 351.6,384.6 181.9,115.8 369.4,198.5 562.4,248.1 192.9,49.6 381.8,68.9 566.5,57.9 184.7,-11 360.4,-50.3 527.3,-117.8 166.7,-67.6 312.8,-159.3 438.3,-275 125.4,-115.8 226,-255.1 301.9,-417.7 75.8,-162.7 116.4,-344.7 122,-545.9 2.7,-190.2 9.6,-393.6 20.7,-609.9 10.9,-216.5 11.7,-433.6 2,-651.4 -9.7,-217.8 -37.9,-428 -84.7,-630.6 -47,-202.6 -124.1,-385.3 -231.6,-547.9 -91,-137.9 -213,-249.6 -366,-335 -153,-85.5 -318.4,-145.5 -496.2,-179.9 -177.9,-34.4 -360.5,-43.4 -548,-26.9 -187.5,16.6 -363.3,58.6 -527.2,126.2 -164.1,67.5 -308.8,159.2 -434.3,275 -125.4,115.7 -214.3,256.3 -266.7,421.8"
         style="fill:#ff643a;fill-opacity:1;fill-rule:nonzero;stroke:none"
         id="path66" /><path
         d="m 19301.2,9733.9 c 16.5,77.1 48.9,135.7 97.2,175.7 48.2,39.9 101.3,60.6 159.2,62 57.9,1.4 113,-15.9 165.4,-51.6 52.3,-35.9 89.5,-91 111.6,-165.5 2.7,-179.2 4.2,-356.3 4.2,-531.4 0,-175.1 2.7,-350.8 8.2,-527.2 121.3,0 239.2,1.3 353.6,4.1 114.4,2.7 224,4.2 328.8,4.2 74.4,-22.1 129.5,-57.3 165.4,-105.5 35.8,-48.3 53,-98.6 51.7,-150.9 -1.4,-52.4 -22.1,-100.7 -62,-144.8 -40.1,-44.1 -98.7,-74.4 -175.8,-91 -107.5,0 -215,-0.7 -322.6,-2 -107.5,-1.4 -215,-0.7 -322.5,2 5.5,-137.8 8.9,-287.4 10.3,-448.6 1.4,-161.3 3.4,-310.9 6.2,-448.7 -5.5,-91 -35.1,-158.6 -88.9,-202.7 -53.8,-44.1 -113.7,-66.1 -179.9,-66.1 -66.1,0 -128.9,22.7 -188.1,68.2 -59.4,45.5 -94.5,112.3 -105.5,200.6 -2.8,140.6 -0.7,288.7 6.2,444.5 6.9,155.8 7.6,304 2.1,444.6 -118.6,2.7 -246.1,8.9 -382.5,18.6 -136.5,9.6 -268.8,29.6 -397,60 -128.2,30.3 -246.1,73 -353.6,128.1 -107.5,55.2 -194.4,128.2 -260.5,219.2 -60.7,85.4 -95.1,177.8 -103.4,277.1 -8.3,99.2 1.3,201.2 28.9,306 27.6,104.7 68.9,210.9 124.1,318.4 55.1,107.5 115.1,210.9 179.9,310.2 64.7,99.2 129.5,192.3 194.3,279.1 64.8,86.9 122,163.4 171.7,229.5 110.2,148.9 223.3,293.6 339.1,434.2 115.7,140.6 231.5,282.6 347.3,426 60.6,49.6 123.4,75.1 188.2,76.5 64.7,1.3 120.6,-14.5 167.5,-47.6 46.8,-33.1 79.2,-80 97.2,-140.6 17.8,-60.6 13,-128.2 -14.5,-202.6 -93.8,-115.8 -204.1,-247.5 -330.8,-394.9 -126.9,-147.6 -251.7,-301.9 -374.3,-463.2 -122.7,-161.3 -234.4,-325.3 -335,-492.1 -100.6,-166.8 -171.6,-328.8 -212.9,-485.9 -16.6,-55.2 -10.4,-102.7 18.6,-142.7 28.9,-40 71.6,-73.1 128.2,-99.2 56.4,-26.3 122,-47.6 196.4,-64.1 74.4,-16.6 148.2,-29 221.2,-37.2 73.1,-8.3 140.6,-14.5 202.7,-18.6 62,-4.2 109.6,-7.7 142.6,-10.4 -5.5,173.7 -8.2,348 -8.2,523.1 0,175.1 0,349.5 0,523.2"
         style="fill:#ff643a;fill-opacity:1;fill-rule:nonzero;stroke:none"
         id="path68" /><path
         d="m 11983,4329.2 -378,5.2 -431.5,1213.3 c 119.1,-0.9 242.1,-1.7 368.4,-2.6 l 442.3,-1214.2 -1.2,-1.7"
         style="fill:#3e5cbe;fill-opacity:1;fill-rule:nonzero;stroke:none"
         id="path70" /><path
         d="m 11541.9,5545.1 c -126.3,0.9 -249.3,1.7 -368.4,2.6 l -894.4,2514.3 336.7,-54.1 c 19,-3.1 34.9,-16.2 41.5,-34.2 l 884.6,-2428.6"
         style="fill:#5973c5;fill-opacity:1;fill-rule:nonzero;stroke:none"
         id="path72" /><path
         d="m 7342.5,4176.1 c 55.99,9.9 2806.8,3914.5 2936.6,3885.9 129.8,-28.5 1641.4,-4617.3 1585.3,-4608.4 -56.2,9 -4661.01,697.9 -4521.9,722.5"
         style="fill:#ff643a;fill-opacity:1;fill-rule:nonzero;stroke:none"
         id="path74" /><path
         d="m 9566.69,4185.3 c -30.14,23.1 -54.41,49.8 -72.82,80.2 -18.41,30.4 -29.01,61.3 -31.75,92.7 -2.76,31.4 3.85,62.1 19.88,91.9 16.01,29.9 42.68,55.9 80.02,78.1 51.44,31.3 102.96,43.2 154.59,35.7 51.63,-7.5 91.35,-38.8 119.24,-93.9 26.2,-47.8 38.76,-99.5 37.7,-155 -1.08,-55.4 -25.23,-103.3 -72.48,-143.7 -34.52,-31.2 -73.52,-44 -117.01,-38.5 -43.49,5.5 -82.64,23 -117.37,52.5 z m 284.76,622.3 c -21.37,-19.1 -43.05,-31.5 -65.06,-37.2 -22.04,-5.7 -43.13,-5.5 -63.3,0.6 -20.16,6 -38.44,17.3 -54.8,34 -16.36,16.7 -28.75,38.4 -37.19,65.1 13.38,164 23.65,330.7 30.82,500 7.16,169.2 16.29,337.5 27.38,504.8 11.04,167.2 27.01,331.9 47.85,494.1 20.81,162.2 51.6,318.2 92.3,468.1 3.31,12.1 14.55,23 33.71,32.6 19.13,9.7 42.39,16.5 69.81,20.6 27.4,4.1 57.23,5.7 89.53,4.8 32.2,-0.9 63.3,-4.7 93.2,-11.6 29.9,-6.9 56.4,-17.1 79.6,-30.6 23.2,-13.6 40.2,-31 50.8,-52.5 17.4,-23.8 27.8,-64.9 31.2,-123.2 3.4,-58.3 2.1,-128.5 -3.9,-210.6 -6,-82.2 -17,-173.4 -32.9,-273.7 -15.9,-100.3 -34.8,-203.3 -56.5,-308.9 -21.7,-105.8 -45.6,-211.8 -71.6,-318.2 -26.1,-106.5 -53.7,-207 -82.8,-301.7 -29.1,-94.6 -58.32,-180.8 -87.56,-258.6 -29.25,-77.7 -57.55,-140.5 -84.84,-188.2 -0.22,-1.4 -2.15,-4.7 -5.75,-9.7"
         style="fill:#ffffff;fill-opacity:1;fill-rule:nonzero;stroke:none"
         id="path76" /><path
         d="m 25086.1,2212.8 h -3328.8 c -66.7,0 -120.8,54.1 -120.8,120.8 v 3888.3 c 0,66.7 54.1,120.8 120.8,120.8 h 3328.8 c 66.7,0 120.8,-54.1 120.8,-120.8 V 2333.6 c 0,-66.7 -54.1,-120.8 -120.8,-120.8"
         style="fill:#1b3d9e;fill-opacity:1;fill-rule:nonzero;stroke:none"
         id="path78" /><g
         id="g80"><g
           id="g82"
           clip-path="url(#clipPath86)"><path
             d="m 25307.4,5757.9 c 0,0 -1398.4,-1969 -3929.3,-2514 V 2038.7 h 4017.4 c 0,0 104.9,3648.7 -88.1,3719.2"
             style="fill:#1c056d;fill-opacity:1;fill-rule:nonzero;stroke:none"
             id="path88" /></g></g>


    <path
         d="m 11724.1,13869.6 -529.7,-68.5 c -291.7,136.6 -574.1,225.1 -837.5,197.6 -264.5,-27.6 -416.43,-304.6 -351.2,-491 57.4,-164 533.4,-332.3 738.7,-336.2 205.3,-4 517.2,43.4 631.7,145 l 0.4,0.5 h 347.6 v 552.6"
         style="fill:#fe8e9c;fill-opacity:1;fill-rule:nonzero;stroke:none"
         id="path152" />
    <g
         id="g154">
        <g
           id="g156"
           clip-path="url(#clipPath160)"><path
             d="m 10560,13146.3 c 0,0 102,199.2 97.3,352.1 -4.6,152.9 -214.8,391.2 -214.8,391.2 l -174.4,-8.9 c 0,0 56.9,-558.3 6.4,-656.8 -50.4,-98.5 0,0 0,0 l 285.5,-77.6"
             style="fill:#e57492;fill-opacity:1;fill-rule:nonzero;stroke:none"
             id="path162" /></g></g><path
         d="m 11376.1,13316.5 c 0,0 104.9,161.1 -139,323.7 0,0 217.5,-35.2 292.3,-180.2 74.7,-145 59.3,-147.2 59.3,-147.2 l -212.6,3.7"
         style="fill:#e57492;fill-opacity:1;fill-rule:nonzero;stroke:none"
         id="path164" /><path
         d="m 11194.4,13801.1 c 0,0 -169.8,-15.1 -202.7,-15.9 -118.9,-2.9 -238.1,-9.4 -238.1,-9.4 0,0 -74.1,240.5 -183,191.2 -160,-72.4 22.9,-184.7 22.9,-184.7 0,0 -284.4,47.4 -312.2,49 -27.7,1.7 212.9,-505.9 -43.8,-660 -256.72,-154.2 -542.67,-73 -578.42,326.7 -35.74,399.7 373.72,783.2 750.62,770.2 376.9,-13 784.7,-467.1 784.7,-467.1"
         style="fill:#1b3d9e;fill-opacity:1;fill-rule:nonzero;stroke:none"
         id="path166" />
    <g
         id="g168">
    <g
           id="g170"
           clip-path="url(#clipPath174)"><path
             d="m 10019.2,13098.2 c 0,0 195.5,163.7 185.8,344.7 -9.6,180.9 -68,464.2 -39.3,483 28.7,18.8 329.7,-101.3 329.7,-101.3 0,0 -55.5,81.2 41.1,122.8 96.6,41.6 0,0 0,0 0,0 153,-167.5 142.2,-185 -10.8,-17.6 -362.3,17.5 -362.3,17.5 0,0 137.9,-338.6 39.2,-538.7 -98.7,-200 -336.4,-143 -336.4,-143"
             style="fill:#1c056d;fill-opacity:1;fill-rule:nonzero;stroke:none"
             id="path176" /></g></g><path
         d="m 11183.2,13312.8 c 0,0 -80.9,23.2 -80.9,163.7 0,140.4 0,14 0,14 0,0 82.2,-149.4 80.9,-177.7"
         style="fill:#f6f9ff;fill-opacity:1;fill-rule:nonzero;stroke:none"
         id="path178" /><path
         d="m 10525.5,13484.1 c 0,0 322.6,-175.5 352.9,-156.8 30.3,18.6 -24.4,215.4 -24.4,215.4 0,0 34.9,2.4 43,-29.1 8.2,-31.4 53.6,-216.6 0,-220.1 -53.5,-3.5 -319.1,127.3 -371.5,190.6"
         style="fill:#e57492;fill-opacity:1;fill-rule:nonzero;stroke:none"
         id="path180" /><path
         d="m 12391.4,10150.6 c 0,0 -79.1,-106.5 -105.3,-159.1 -26.1,-52.7 -34.5,-316 -29,-315.1 5.4,0.9 63.9,4 76.1,38.8 l 64.7,222.3 c 0,0 4.4,-238.4 -3.5,-255.2 -7.9,-16.9 -145.2,-290.5 -133.1,-299.2 12.1,-8.7 64.1,-40.4 104.6,27.8 40.5,68.2 136.3,244.7 148.1,272.9 11.7,28.2 -187.6,-372 -179.6,-375.2 8,-3.2 59.1,-29.7 79.3,-3.6 20.2,26.1 198.7,310.2 204.6,333.1 5.8,22.8 -111.2,-272.2 -105.1,-272.1 6.1,0.1 29.4,-30.2 61.4,10.1 31.9,40.2 139.1,256.6 144.3,268 5.1,11.3 3.5,149.1 3.5,149.1 0,0 26.7,-161.8 20.5,-182.9 -6.3,-21.1 -55.4,-143.7 -32.6,-148 17.3,-3.3 47.4,30 71.1,73.4 23.6,43.5 53.7,108.5 51.4,170.3 -2.2,61.8 -116,407.8 -116,407.8 l -325.4,36.8"
         style="fill:#fe8e9c;fill-opacity:1;fill-rule:nonzero;stroke:none"
         id="path182" /><g
         id="g184"><g
           id="g186"
           clip-path="url(#clipPath190)"><path
             d="m 12226.5,9899.1 c 5,-18 247.5,116.5 577.9,64.9 0,0 -44.4,200.6 -80.5,218.7 -36,18 -319.6,18 -362.8,-2.5 -43.3,-20.4 -157.4,-198.2 -134.6,-281.1"
             style="fill:#e57492;fill-opacity:1;fill-rule:nonzero;stroke:none"
             id="path192" /></g></g><path
         d="m 15356.2,14099.1 c 0,21.2 -15.2,39.4 -36,43.1 l -1719,309.1 c -1441.9,123.4 -1877.1,-514.9 -1877.1,-514.9 v -619.7 l 168.7,0.7 c 124.9,-364.7 480.3,-1409.9 516.4,-1599.8 44,-230.8 -239.6,-1620.6 -210.3,-1639 29.4,-18.5 666.2,-96.8 725,-87 58.8,9.8 352.7,1540.3 333.1,1725.3 -15,142 -59,1116 -167.2,1605.3 l 2266.4,9 v 767.9"
         style="fill:#3c474c;fill-opacity:1;fill-rule:nonzero;stroke:none"
         id="path194" /><path
         d="m 13089.8,13322.2 c 0,0 -42.9,227.2 -233.6,385 0,0 1019,-203.8 1314.8,-223.5 295.8,-19.7 1185.2,58.5 1185.2,58.5 v -211 l -2266.4,-9"
         style="fill:#2c393f;fill-opacity:1;fill-rule:nonzero;stroke:none"
         id="path196" /><path
    d="m 20467.4,12710.4 c 0,0 358.3,85.1 367.2,68.6 9,-16.4 59.8,-180.6 40.4,-240.3 -19.5,-59.7 -371.7,-188.1 -371.7,-188.1 l -35.9,359.8"
         style="fill:#e57492;fill-opacity:1;fill-rule:nonzero;stroke:none"
         id="path198" />
    <path
         d="m 20746.6,13799.8 c 0,0 -3393.6,278.5 -4098.4,426.4 -704.8,147.9 -1292,-173.6 -1292,-173.6 v -721.4 c 0,0 1823.7,-1553.8 2641.5,-1574.2 817.7,-20.4 2528.2,436.1 2541.8,511.1 13.7,75 0,517.9 -68.1,545.2 -68.2,27.2 -2330.6,-231.7 -2371.5,-184 -26.6,31 -409.6,415.6 -745.8,701.9 h 3392.5 v 468.6"
         style="fill:#2c393f;fill-opacity:1;fill-rule:nonzero;stroke:none"
         id="path200" />
    <path
         d="m 20821.4,12781.1 c 0,0 58,92.5 166.5,107.7 108.4,15.1 143.7,0 143.7,0 0,0 291.2,-789 238.4,-805.7 -52.8,-16.7 -172.4,-19.5 -208.5,13.9 -36.1,33.3 -310.3,414.8 -310.3,414.8 0,0 17.7,206.3 -29.8,269.3"
         style="fill:#1b3d9e;fill-opacity:1;fill-rule:nonzero;stroke:none"
         id="path216" />

    <path
         d="m 20746.6,13637.3 c 0,0 335.3,-46.6 341.6,-63.4 6.3,-16.8 7.5,-243.1 7.5,-243.1 l -349.1,-0.7 v 307.2"
         style="fill:#e57492;fill-opacity:1;fill-rule:nonzero;stroke:none"
         id="path232" />
    <path
         d="m 21074.4,13580.6 c 0,0 39.4,99.2 154.8,105.6 115.4,6.3 385.3,-137.3 409.3,-147.5 24.1,-10.1 349.2,-97.6 354.8,-100.4 69.6,-35.2 7.7,-118.2 7.7,-118.2 l -905.3,10.7 -21.3,249.8"
         style="fill:#1b3d9e;fill-opacity:1;fill-rule:nonzero;stroke:none"
         id="path234" />
</g>
</g>
</svg>
