<?xml version="1.0" encoding="UTF-8" ?>
<!DOCTYPE svg PUBLIC "-//W3C//DTD SVG 1.1//EN" "http://www.w3.org/Graphics/SVG/1.1/DTD/svg11.dtd">
<svg width="960pt" height="300pt" viewBox="0 0 960 559" version="1.1" xmlns="http://www.w3.org/2000/svg">
<g id="#ffffffff">
<path fill="#ffffff" opacity="1.00" d=" M 343.49 55.43 C 356.18 49.25 370.75 45.74 384.84 48.18 C 391.73 49.30 398.24 53.19 401.58 59.46 C 408.51 72.02 409.03 87.34 405.66 101.05 C 402.70 113.10 395.00 124.35 383.54 129.69 C 386.43 137.44 389.28 145.21 391.91 153.06 C 384.41 147.15 376.86 141.31 369.44 135.31 C 364.35 135.39 359.16 136.23 354.17 134.81 C 342.14 131.78 333.11 121.88 327.68 111.14 C 322.63 100.83 319.59 88.84 322.31 77.45 C 325.22 67.14 334.37 60.14 343.49 55.43 M 377.17 56.20 C 374.72 56.67 372.22 56.93 369.86 57.74 C 367.88 58.60 367.19 61.07 367.97 62.99 C 370.77 72.02 373.59 81.05 376.59 90.02 C 377.71 94.17 384.56 93.16 384.47 88.91 C 384.61 78.92 384.82 68.92 384.60 58.94 C 384.08 55.40 379.84 55.36 377.17 56.20 M 339.27 71.34 C 336.76 73.04 334.17 74.73 332.09 76.96 C 331.07 78.61 331.95 80.52 333.22 81.70 C 338.11 86.85 343.13 91.88 348.02 97.03 C 349.37 98.32 350.86 100.24 353.00 99.55 C 355.40 99.06 356.30 96.09 355.03 94.13 C 351.69 87.14 348.23 80.20 344.84 73.24 C 344.11 70.99 341.22 69.63 339.27 71.34 M 378.43 96.59 C 376.37 98.88 378.45 102.29 378.91 104.96 C 379.75 108.26 383.97 106.98 386.17 105.90 C 387.20 103.27 385.91 100.31 385.29 97.68 C 384.37 94.82 380.55 95.93 378.43 96.59 M 359.28 102.36 C 357.79 103.29 355.29 104.71 356.25 106.83 C 357.59 109.12 359.25 111.24 361.11 113.15 C 363.62 114.65 366.11 111.97 367.42 110.04 C 367.53 108.07 365.80 106.65 364.87 105.07 C 363.61 103.35 361.65 100.48 359.28 102.36 Z" />
<path fill="#ffffff" opacity="1.00" d=" M 510.11 87.22 C 515.94 84.28 522.89 84.60 529.03 86.31 C 535.67 88.10 542.37 84.90 549.06 86.09 C 555.31 86.93 562.13 86.98 567.59 90.52 C 572.78 94.26 572.27 101.54 571.22 107.11 C 568.62 120.70 559.97 131.88 551.78 142.61 C 549.54 145.88 546.69 148.84 545.24 152.58 C 540.68 152.91 536.07 152.69 531.63 151.54 L 531.56 151.52 C 523.51 149.39 515.75 146.30 508.27 142.66 C 514.49 135.76 521.32 129.44 527.40 122.43 C 528.74 121.12 526.98 119.73 526.04 118.90 C 524.24 116.58 521.29 118.84 518.95 118.54 C 516.04 119.06 513.55 116.70 512.88 114.02 C 510.12 105.40 510.30 96.18 510.11 87.22 Z" />
<path fill="#ffffff" opacity="1.00" d=" M 480.27 160.38 C 484.47 158.15 489.42 157.04 494.09 158.40 C 499.56 160.54 502.65 166.08 504.80 171.23 C 503.49 170.99 502.18 170.73 500.87 170.46 C 498.54 169.97 496.16 169.87 493.79 169.79 C 493.65 172.04 493.62 174.34 494.37 176.50 C 495.04 178.88 495.62 181.29 496.03 183.74 C 491.14 180.81 491.48 174.55 488.93 170.06 C 487.20 165.92 483.69 163.08 480.27 160.38 Z" />
<path fill="#ffffff" opacity="1.00" d=" M 469.91 177.07 C 475.86 180.61 482.52 182.57 488.97 184.89 C 487.48 185.40 486.08 186.06 484.75 186.86 C 484.00 188.47 484.46 190.26 484.66 191.94 C 481.01 190.61 476.79 190.04 473.95 187.17 C 471.65 184.29 470.70 180.60 469.91 177.07 Z" />
<path fill="#ffffff" opacity="1.00" d=" M 627.20 206.28 C 635.17 210.82 641.68 217.91 645.75 226.11 C 639.14 229.57 631.74 231.60 625.00 234.89 C 623.08 235.95 622.36 238.18 621.22 239.92 C 613.04 254.53 603.73 268.87 591.06 280.01 C 583.84 286.26 574.88 291.45 565.06 291.32 C 552.97 291.06 542.33 282.49 536.95 272.06 C 544.32 271.48 551.14 268.37 557.91 265.63 C 575.45 257.97 592.34 248.42 606.94 235.96 C 615.91 227.97 624.75 218.45 627.20 206.28 Z" />
<path fill="#ffffff" opacity="1.00" d=" M 456.96 216.76 C 457.67 215.58 458.28 213.97 460.01 214.17 C 460.50 215.28 461.11 216.32 461.84 217.30 C 468.82 226.49 475.83 235.68 482.79 244.89 C 476.88 252.77 471.77 261.21 466.68 269.63 C 464.37 272.69 466.07 276.60 465.52 280.08 C 458.82 280.06 452.13 279.82 445.43 279.70 C 445.59 272.88 446.16 265.90 443.46 259.44 L 443.45 259.41 C 443.04 257.23 443.07 255.01 443.14 252.80 C 442.30 252.27 441.46 251.75 440.62 251.24 C 445.35 239.44 450.56 227.77 456.96 216.76 Z" />
<path fill="#ffffff" opacity="1.00" d=" M 273.21 373.97 C 273.16 367.28 272.85 360.57 273.60 353.90 C 277.23 367.87 278.76 382.32 282.71 396.21 C 285.45 405.43 291.21 413.36 294.36 422.42 C 297.95 432.89 298.83 444.37 296.39 455.20 C 294.73 442.21 291.91 429.30 286.67 417.25 C 283.88 410.28 279.80 403.92 276.94 396.98 C 273.91 389.72 273.28 381.75 273.21 373.97 Z" />
<path fill="#ffffff" opacity="1.00" d=" M 693.27 369.21 C 693.91 365.75 693.95 362.12 695.45 358.88 C 696.59 368.21 697.21 377.68 696.48 387.07 C 695.68 396.16 690.31 403.79 686.82 411.97 C 681.68 423.63 678.75 436.23 678.13 448.96 C 675.02 440.28 675.28 430.60 677.71 421.78 C 680.25 412.34 686.53 404.40 688.76 394.86 C 690.80 386.41 691.76 377.76 693.27 369.21 Z" />
<path fill="#ffffff" opacity="1.00" d=" M 208.40 419.02 C 202.91 407.29 199.99 391.78 208.67 380.82 C 209.04 386.46 208.81 392.12 209.00 397.77 C 212.00 396.46 215.70 395.18 218.62 397.41 C 224.04 401.22 224.63 408.56 224.26 414.62 C 226.58 412.99 228.98 411.02 231.98 411.01 C 237.53 410.46 242.83 416.27 241.59 421.74 C 239.43 425.92 234.14 426.30 229.99 426.09 C 228.26 425.25 226.51 424.45 224.74 423.71 C 226.76 426.81 229.27 429.54 231.67 432.36 C 237.33 439.13 241.21 447.11 245.16 454.94 C 245.10 455.76 244.99 457.40 244.93 458.22 C 241.24 455.05 238.83 450.77 235.77 447.05 C 230.80 450.69 226.06 455.14 219.90 456.62 L 218.92 456.46 C 219.16 449.36 217.88 442.30 215.31 435.68 C 213.50 432.18 215.64 428.51 216.29 425.02 C 212.10 427.07 207.83 429.53 202.96 428.96 C 202.38 424.67 205.75 421.80 208.40 419.02 M 209.11 410.09 C 208.91 412.98 208.87 415.90 209.02 418.80 C 211.04 418.15 213.07 417.48 215.09 416.79 C 213.13 414.52 211.13 412.29 209.11 410.09 M 217.32 416.39 C 214.95 418.86 216.35 424.04 220.07 424.23 C 222.41 423.74 223.62 421.28 223.49 419.06 C 223.48 416.18 219.40 414.27 217.32 416.39 Z" />
<path fill="#ffffff" opacity="1.00" d=" M 568.95 395.95 C 571.07 392.65 573.24 389.36 575.98 386.53 C 577.64 399.35 581.42 411.77 584.70 424.24 C 581.97 428.71 578.28 432.74 576.85 437.90 C 575.94 441.11 575.19 444.36 574.17 447.54 C 572.52 430.34 571.45 413.06 568.95 395.95 Z" />
<path fill="#ffffff" opacity="1.00" d=" M 428.01 413.57 C 431.53 410.92 435.19 408.37 439.25 406.60 C 438.64 410.59 436.39 413.99 433.79 416.98 L 431.98 415.93 L 433.02 418.10 C 431.21 417.45 429.41 416.77 427.58 416.21 C 428.76 417.47 430.42 417.97 431.95 418.69 C 428.50 420.28 424.77 421.95 420.88 421.14 C 422.38 417.91 425.26 415.69 428.01 413.57 M 433.05 412.24 C 432.29 413.17 432.32 414.65 432.49 415.79 C 434.22 416.45 434.98 412.29 433.05 412.24 Z" />
<path fill="#ffffff" opacity="1.00" d=" M 378.82 428.71 C 379.05 426.73 379.26 424.75 379.66 422.79 C 379.61 424.60 379.90 426.39 380.29 428.16 C 384.02 429.82 387.28 432.42 391.17 433.76 C 401.75 437.86 413.28 437.75 424.46 437.78 L 424.19 436.38 C 425.83 438.42 428.73 437.48 431.00 437.79 C 435.08 437.61 439.44 439.41 443.27 437.29 C 458.50 429.97 474.81 424.73 491.67 423.05 L 491.72 423.39 C 485.49 424.66 479.09 425.06 472.97 426.87 C 463.62 429.23 454.59 432.67 445.79 436.59 C 437.28 440.03 431.44 447.90 427.52 455.91 C 427.62 457.09 427.68 458.28 427.71 459.48 C 426.48 459.58 425.72 460.25 425.42 461.49 C 423.99 465.55 423.12 469.81 422.54 474.08 C 421.97 477.90 422.44 481.88 421.08 485.57 C 424.89 488.72 428.98 491.60 432.26 495.35 C 432.52 495.01 433.05 494.33 433.32 494.00 C 433.62 495.09 433.71 496.23 433.78 497.38 C 429.56 493.18 424.89 489.49 420.31 485.70 C 415.41 488.71 411.18 492.67 407.72 497.25 C 409.11 499.33 410.58 501.36 411.90 503.49 C 409.21 501.33 407.77 497.59 404.22 496.61 C 391.27 493.00 377.69 492.98 364.37 493.70 C 367.48 492.77 370.76 492.80 373.97 492.69 C 384.87 492.37 395.84 493.55 406.35 496.49 C 405.27 494.68 404.50 492.40 402.36 491.59 C 392.45 486.70 380.99 484.91 370.07 486.68 C 367.51 487.76 366.12 490.57 364.04 492.36 C 364.22 490.96 364.33 489.62 364.64 488.26 C 364.95 488.62 365.57 489.33 365.88 489.69 C 367.37 487.79 368.82 485.87 370.31 483.98 C 371.67 477.26 369.85 470.55 370.07 463.81 C 369.61 463.64 368.69 463.28 368.23 463.11 L 368.24 462.41 L 368.88 462.69 L 370.09 463.25 C 370.93 460.33 372.08 457.49 373.96 455.08 C 377.19 450.80 379.50 445.91 381.23 440.84 C 380.37 437.38 379.83 433.84 378.70 430.46 L 378.64 430.26 C 378.68 429.87 378.77 429.10 378.82 428.71 M 379.97 429.16 C 379.40 432.05 380.82 434.91 381.06 437.79 C 381.46 437.63 382.25 437.30 382.65 437.14 C 382.62 437.62 382.55 438.59 382.52 439.08 C 394.21 444.50 407.02 447.04 419.80 448.24 C 421.96 448.19 423.76 446.80 425.70 446.01 C 425.49 444.65 425.26 443.31 424.99 441.97 C 425.29 443.13 425.62 444.29 425.99 445.44 C 429.89 443.25 434.42 442.07 437.89 439.19 C 433.57 438.25 429.14 438.39 424.77 438.09 C 424.78 438.86 424.81 440.40 424.82 441.17 C 424.53 440.23 424.27 439.30 424.06 438.36 C 409.12 438.74 392.98 437.93 380.49 428.71 L 379.97 429.16 M 381.82 439.60 C 382.37 443.34 383.20 447.06 384.29 450.69 C 391.17 454.71 399.29 455.76 407.08 456.77 C 411.02 453.96 415.73 452.13 419.23 448.79 C 406.37 447.71 393.64 444.81 381.82 439.60 M 425.59 446.49 L 425.81 447.60 L 425.60 446.56 C 424.29 447.17 423.09 447.94 422.01 448.86 C 416.69 458.74 413.98 469.94 414.69 481.17 C 416.79 482.41 418.60 484.67 421.24 484.56 C 421.57 475.83 422.00 466.56 426.19 458.71 C 426.51 457.29 427.01 455.88 426.97 454.42 C 428.80 452.30 429.98 449.74 431.54 447.43 C 432.99 445.15 436.28 444.40 436.60 441.36 C 432.63 442.37 429.11 444.49 425.59 446.49 M 375.24 454.41 C 373.25 456.96 371.63 459.81 370.91 462.99 C 372.22 463.35 373.54 463.71 374.87 464.06 C 376.37 458.75 381.20 455.13 383.28 450.01 C 382.89 447.54 382.22 445.12 381.69 442.69 C 379.45 446.55 377.99 450.85 375.24 454.41 M 404.36 459.72 C 404.63 460.44 405.17 461.87 405.44 462.58 C 405.06 464.38 404.76 466.19 404.51 468.02 C 406.47 470.12 408.00 472.58 408.91 475.31 C 408.49 475.90 408.08 476.49 407.68 477.10 C 409.87 478.18 411.98 479.45 414.06 480.75 C 414.20 476.80 414.00 472.84 414.51 468.92 C 415.46 461.97 418.27 455.50 420.92 449.08 C 415.39 452.61 409.43 455.52 404.36 459.72 M 376.90 460.85 C 376.09 461.90 374.48 464.69 377.13 464.67 C 379.52 464.01 381.46 461.89 384.24 462.28 C 384.53 460.76 384.89 459.25 385.43 457.81 C 384.89 455.55 384.36 453.29 383.86 451.03 C 381.39 454.20 379.43 457.72 376.90 460.85 M 384.73 452.06 C 385.11 453.77 385.54 455.49 385.97 457.21 C 389.08 456.25 391.88 458.17 392.91 461.08 C 393.52 463.42 396.84 461.63 398.04 463.17 C 397.16 464.10 396.27 465.00 396.08 466.35 C 395.60 466.52 394.63 466.86 394.14 467.02 C 394.95 468.49 395.24 470.58 397.10 471.14 C 397.20 469.16 396.11 466.99 397.14 465.16 C 399.62 464.44 402.02 466.50 404.04 467.73 C 404.17 466.09 404.28 464.45 404.37 462.81 C 402.94 462.80 401.51 462.76 400.10 462.69 C 398.81 459.82 403.28 462.69 404.48 462.49 C 404.38 461.83 404.19 460.50 404.10 459.84 C 401.83 460.84 399.29 460.21 396.91 460.72 C 398.73 459.85 400.64 459.00 402.71 459.59 L 402.43 458.46 C 403.22 458.38 404.80 458.23 405.59 458.15 L 404.86 457.20 C 397.94 456.39 391.19 454.66 384.73 452.06 M 383.91 463.04 C 383.60 463.84 382.98 465.42 382.67 466.21 L 384.60 465.37 C 384.59 465.72 384.56 466.42 384.55 466.77 C 385.47 466.83 387.30 466.94 388.21 466.99 C 387.03 466.26 386.24 465.23 385.92 463.90 C 385.42 463.68 384.42 463.26 383.91 463.04 M 393.37 463.32 C 393.95 463.90 393.95 463.90 393.37 463.32 M 370.81 463.66 C 370.27 470.46 372.46 477.24 370.99 484.03 C 372.64 482.34 375.13 481.21 376.24 479.05 C 376.42 474.31 376.17 469.55 375.58 464.84 C 373.98 464.45 372.39 464.06 370.81 463.66 M 379.43 464.04 C 379.49 464.56 379.59 465.60 379.65 466.12 C 378.80 465.85 377.12 465.32 376.27 465.05 C 376.87 469.58 376.82 474.16 376.97 478.73 C 379.35 477.05 382.45 475.32 381.56 471.79 C 380.64 472.95 379.72 474.10 378.79 475.26 C 379.40 473.16 380.47 471.21 381.36 469.24 C 380.50 469.41 378.78 469.75 377.92 469.92 C 379.69 467.53 382.49 465.83 383.30 462.83 C 382.33 463.13 380.40 463.74 379.43 464.04 M 382.42 469.10 C 383.73 469.14 384.15 468.51 383.66 467.20 C 382.18 467.07 381.76 467.70 382.42 469.10 M 397.71 466.42 C 397.62 468.23 397.53 470.05 397.44 471.88 C 399.67 472.79 401.85 473.82 404.08 474.74 C 404.08 472.83 404.63 470.88 404.15 469.00 C 402.67 466.99 399.90 466.98 397.71 466.42 M 385.38 468.37 L 385.52 469.56 L 384.63 469.46 C 383.95 470.96 383.18 472.43 382.56 473.97 C 384.99 472.55 387.51 471.07 389.25 468.79 C 388.28 468.69 386.35 468.47 385.38 468.37 M 382.35 470.69 C 382.77 471.01 382.77 471.01 382.35 470.69 M 383.36 474.66 C 387.08 475.81 390.80 476.95 394.56 478.00 C 394.02 476.01 391.03 474.03 393.21 471.90 L 391.36 472.77 C 390.68 471.89 389.99 471.02 389.30 470.18 C 387.27 471.61 385.25 473.06 383.36 474.66 M 405.10 469.74 C 405.08 471.87 403.93 474.34 405.36 476.30 C 406.31 475.94 407.25 475.58 408.21 475.22 C 407.45 473.22 406.48 471.35 405.10 469.74 M 394.04 474.88 C 395.05 474.64 395.98 473.23 395.60 472.22 C 393.89 471.09 392.11 474.02 394.04 474.88 M 396.54 472.13 C 395.19 474.69 394.31 477.83 396.90 479.97 C 392.37 477.51 387.18 476.75 382.38 475.00 C 382.47 476.00 382.66 477.99 382.76 478.98 C 382.51 478.27 382.00 476.84 381.75 476.13 C 380.50 476.91 379.25 477.71 378.02 478.52 C 384.79 481.29 392.02 482.90 398.98 485.23 C 398.21 483.67 397.41 482.15 396.79 480.55 C 398.19 481.56 398.68 483.22 399.19 484.79 C 400.79 482.99 401.69 480.74 403.07 478.80 C 402.64 481.13 401.29 483.11 400.11 485.11 C 401.48 487.42 402.94 489.68 404.37 491.96 C 407.71 488.66 411.15 485.45 414.14 481.82 C 412.04 480.14 409.73 478.74 407.25 477.70 L 408.14 475.93 C 407.16 476.08 405.20 476.37 404.22 476.52 C 403.96 477.20 403.45 478.55 403.20 479.23 C 403.26 478.21 403.39 476.17 403.45 475.15 C 401.12 474.21 398.84 473.15 396.54 472.13 M 371.78 483.91 L 371.09 485.93 C 381.99 484.16 393.11 486.54 403.08 491.00 C 401.93 489.17 400.77 487.37 399.28 485.80 C 392.06 484.14 385.13 481.34 377.92 479.59 C 375.46 480.20 374.14 482.92 371.78 483.91 M 404.97 492.29 C 405.73 493.83 406.42 495.38 406.81 497.07 C 410.52 492.58 414.71 488.53 419.54 485.25 C 417.93 484.18 416.33 483.10 414.76 481.99 C 411.86 485.75 408.28 488.91 404.97 492.29 Z" />
<path fill="#ffffff" opacity="1.00" d=" M 702.34 469.03 C 702.33 454.96 703.23 440.58 707.73 427.16 C 703.25 444.87 708.83 464.05 701.27 481.16 C 701.53 477.11 702.31 473.10 702.34 469.03 Z" />
<path fill="#ffffff" opacity="1.00" d=" M 512.19 432.66 C 515.76 430.99 519.55 429.94 523.35 428.93 C 524.64 436.08 527.03 442.94 529.19 449.85 C 525.26 450.58 521.35 451.36 517.45 452.19 C 516.07 447.29 514.89 442.33 513.53 437.42 L 513.50 437.32 C 513.04 435.77 512.62 434.20 512.19 432.66 Z" />
<path fill="#ffffff" opacity="1.00" d=" M 235.40 431.62 C 241.14 430.92 246.98 430.85 252.73 431.36 C 253.59 432.47 254.24 433.72 254.95 434.94 C 250.92 434.86 246.90 434.54 242.89 434.08 C 246.37 438.40 250.63 443.63 248.46 449.56 C 244.43 443.36 240.36 437.13 235.40 431.62 Z" />
<path fill="#ffffff" opacity="1.00" d=" M 275.18 431.33 C 277.54 431.06 279.92 430.91 282.30 430.75 C 286.09 437.65 289.34 444.97 290.52 452.82 C 288.17 453.46 285.82 454.12 283.47 454.79 C 281.70 447.16 278.56 439.88 274.69 433.09 C 274.81 432.65 275.06 431.77 275.18 431.33 Z" />
<path fill="#ffffff" opacity="1.00" d=" M 268.35 453.01 C 268.06 447.28 266.87 441.65 266.33 435.96 C 270.27 449.63 272.44 463.80 273.06 478.01 C 273.29 484.10 274.31 490.11 275.78 496.01 C 269.19 482.68 269.31 467.50 268.35 453.01 Z" />
<path fill="#ffffff" opacity="1.00" d=" M 765.63 451.51 C 771.91 449.54 775.67 443.91 779.82 439.24 C 777.53 444.12 774.76 449.05 770.27 452.24 C 764.22 456.57 756.79 458.09 750.07 461.01 C 743.04 463.63 736.74 467.76 729.99 470.94 C 740.54 462.32 752.75 455.88 765.63 451.51 Z" />
<path fill="#ffffff" opacity="1.00" d=" M 206.78 470.19 C 200.72 467.14 196.94 461.15 194.20 455.18 C 197.32 458.30 199.75 462.13 203.41 464.70 C 205.95 466.55 209.02 467.43 211.99 468.34 C 224.70 472.13 236.69 478.44 246.91 486.91 C 240.74 483.63 234.66 480.13 228.07 477.73 C 221.12 474.81 213.52 473.63 206.78 470.19 Z" />
</g>
<g id="#020202ff">
<path fill="#020202" opacity="1.00" d=" M 332.70 61.60 C 344.10 52.58 358.55 47.79 372.96 46.80 C 382.58 46.36 393.80 47.89 400.07 56.04 C 406.35 64.33 408.29 75.09 408.32 85.28 C 408.18 98.25 404.56 111.79 395.63 121.54 C 392.49 125.08 388.53 127.76 384.40 130.02 C 387.52 138.43 390.33 146.95 393.67 155.28 C 385.74 148.99 377.70 142.84 369.87 136.43 C 367.31 135.67 364.64 136.24 362.03 136.26 C 352.73 136.67 343.78 132.18 337.34 125.68 C 326.36 114.54 319.84 98.69 320.70 82.99 C 321.10 74.43 326.13 66.81 332.70 61.60 M 343.49 55.43 C 334.37 60.14 325.22 67.14 322.31 77.45 C 319.59 88.84 322.63 100.83 327.68 111.14 C 333.11 121.88 342.14 131.78 354.17 134.81 C 359.16 136.23 364.35 135.39 369.44 135.31 C 376.86 141.31 384.41 147.15 391.91 153.06 C 389.28 145.21 386.43 137.44 383.54 129.69 C 395.00 124.35 402.70 113.10 405.66 101.05 C 409.03 87.34 408.51 72.02 401.58 59.46 C 398.24 53.19 391.73 49.30 384.84 48.18 C 370.75 45.74 356.18 49.25 343.49 55.43 Z" />
<path fill="#020202" opacity="1.00" d=" M 509.26 87.09 C 515.36 83.45 522.93 83.94 529.55 85.75 C 534.09 87.01 538.74 85.62 543.31 85.27 C 548.52 85.19 553.72 85.85 558.85 86.72 C 563.53 87.53 568.96 89.10 571.16 93.78 C 573.77 99.78 572.18 106.59 570.46 112.62 C 565.91 127.76 554.20 138.95 546.06 152.08 C 562.71 160.48 579.98 167.70 595.94 177.42 C 606.47 183.83 616.56 191.04 625.50 199.55 C 627.39 201.05 627.52 203.53 627.74 205.74 C 635.97 210.65 642.57 218.06 646.83 226.62 C 644.40 227.65 641.94 228.62 639.52 229.66 C 646.06 244.30 648.11 260.59 647.68 276.50 C 646.79 304.08 638.09 330.48 630.39 356.71 C 627.67 367.08 624.08 377.30 622.91 388.01 C 622.17 393.70 623.47 399.35 624.75 404.87 C 627.49 417.39 631.59 429.55 635.35 441.79 C 639.20 454.65 642.80 467.72 643.85 481.16 C 643.99 483.05 644.10 484.94 644.21 486.85 C 642.76 486.91 641.32 486.98 639.89 487.06 C 640.49 489.93 641.10 492.80 641.66 495.68 C 653.12 495.40 664.59 495.01 676.03 494.17 C 678.06 494.01 680.10 493.85 682.14 493.69 C 685.11 493.45 688.06 493.12 691.02 492.79 C 692.93 492.59 694.84 492.38 696.75 492.11 C 697.70 491.96 698.66 491.82 699.63 491.71 C 702.52 491.58 705.41 491.50 708.31 491.44 C 718.17 491.48 729.09 491.95 737.16 498.37 C 732.06 498.04 726.92 497.48 721.85 498.36 C 712.55 499.77 703.88 503.74 694.62 505.36 C 683.23 507.70 671.56 506.79 660.03 506.86 C 619.01 506.68 577.98 506.67 536.98 508.19 C 521.25 508.88 505.46 509.49 489.91 512.14 C 471.44 514.53 453.11 509.95 434.81 508.15 C 414.31 506.02 393.44 505.22 373.06 508.92 C 357.01 511.60 341.42 517.16 325.04 517.67 C 317.96 517.94 310.89 517.17 303.92 515.95 C 281.80 512.50 259.33 513.15 237.03 513.69 C 234.28 513.74 231.52 513.63 228.78 513.33 C 240.63 507.21 254.42 506.77 267.47 505.92 C 273.62 505.62 279.79 505.69 285.95 505.65 C 306.01 505.36 326.24 507.58 346.16 504.32 C 345.76 501.01 345.82 497.68 346.32 494.39 C 347.03 498.17 344.90 503.74 349.22 505.81 C 352.87 507.39 356.98 506.43 360.77 505.93 C 361.87 501.41 363.13 496.92 364.04 492.36 C 366.12 490.57 367.51 487.76 370.07 486.68 C 380.99 484.91 392.45 486.70 402.36 491.59 C 404.50 492.40 405.27 494.68 406.35 496.49 C 395.84 493.55 384.87 492.37 373.97 492.69 C 370.76 492.80 367.48 492.77 364.37 493.70 C 377.69 492.98 391.27 493.00 404.22 496.61 C 407.77 497.59 409.21 501.33 411.90 503.49 C 410.58 501.36 409.11 499.33 407.72 497.25 C 411.18 492.67 415.41 488.71 420.31 485.70 C 424.89 489.49 429.56 493.18 433.78 497.38 C 433.81 497.89 433.87 498.91 433.90 499.42 C 459.56 501.84 485.25 504.03 510.92 506.46 C 507.44 493.21 504.70 479.74 503.57 466.08 C 503.39 462.16 501.43 458.70 500.14 455.09 C 496.31 444.83 493.55 434.19 491.72 423.39 L 491.67 423.05 C 491.07 419.12 490.58 415.17 490.20 411.21 C 473.46 409.66 456.73 408.05 439.99 406.59 C 438.50 415.12 430.84 422.19 422.02 422.15 C 422.66 426.90 423.33 431.65 424.19 436.38 L 424.46 437.78 C 413.28 437.75 401.75 437.86 391.17 433.76 C 387.28 432.42 384.02 429.82 380.29 428.16 C 379.90 426.39 379.61 424.60 379.66 422.79 C 380.95 417.46 381.34 411.97 381.71 406.51 C 377.00 405.98 372.23 405.49 367.54 406.41 C 364.75 411.95 364.29 418.20 362.92 424.15 C 359.77 436.05 356.55 447.93 353.44 459.85 C 358.47 459.86 363.63 460.24 368.24 462.41 C 362.55 461.19 356.76 459.97 350.91 460.76 C 350.00 468.54 349.35 476.36 348.14 484.09 C 347.98 484.42 347.64 485.09 347.48 485.42 C 348.55 477.11 349.23 468.75 350.44 460.46 C 351.02 460.31 352.18 460.01 352.76 459.86 C 353.42 457.36 354.07 454.85 354.73 452.35 C 355.70 448.74 356.68 445.13 357.62 441.52 C 359.02 436.29 360.42 431.05 361.85 425.83 C 363.22 421.00 363.56 415.93 365.05 411.13 C 367.18 406.73 365.40 401.85 366.34 397.23 C 366.52 400.10 366.64 402.97 366.82 405.84 C 371.54 405.12 376.33 405.34 381.08 405.63 C 382.37 401.45 383.52 397.23 384.28 392.93 C 386.74 379.42 389.54 365.94 390.81 352.25 C 386.78 352.10 382.75 352.11 378.72 352.14 C 374.80 361.62 374.31 372.17 370.45 381.64 C 371.42 377.57 372.28 373.48 373.23 369.42 C 374.68 363.85 375.88 358.21 377.65 352.73 C 378.40 352.15 379.11 351.55 379.81 350.91 C 381.78 335.37 389.60 321.07 390.20 305.27 C 382.16 305.27 374.11 304.99 366.07 305.15 C 362.90 305.35 359.06 303.74 359.00 300.09 C 357.85 288.95 362.11 278.25 362.27 267.20 C 361.20 263.32 360.74 259.09 362.49 255.33 C 363.63 252.36 367.12 251.45 369.96 251.01 C 373.50 250.56 378.09 251.42 379.65 255.07 C 380.71 259.36 379.83 263.85 379.21 268.15 C 381.00 270.83 381.07 273.96 379.81 276.87 C 394.91 278.17 410.06 278.79 425.20 279.12 C 425.05 275.71 425.11 272.30 425.41 268.90 C 426.00 263.57 423.57 258.35 424.49 253.03 C 424.62 251.33 426.60 251.13 427.85 250.55 C 431.92 250.42 435.98 250.88 440.01 251.44 C 445.02 238.14 450.98 225.07 458.58 213.02 C 458.28 212.64 457.68 211.87 457.38 211.49 C 460.63 201.03 463.95 190.53 468.94 180.74 C 471.40 176.48 465.21 173.99 462.05 173.27 C 459.49 175.81 457.62 179.54 453.85 180.47 C 450.71 181.37 447.73 179.39 445.72 177.15 C 442.42 173.50 439.54 169.47 436.95 165.29 C 435.72 163.14 434.67 160.89 433.65 158.63 C 428.82 160.81 422.65 161.23 418.48 157.47 C 414.74 153.92 415.57 148.05 417.59 143.81 C 419.91 139.28 422.63 134.85 426.20 131.18 C 429.93 127.36 435.68 126.27 440.80 127.19 C 443.15 127.59 444.49 130.12 446.82 130.50 C 447.68 129.81 448.52 129.09 449.32 128.33 C 443.88 124.24 439.94 117.21 441.53 110.30 C 445.79 106.94 451.90 107.06 457.11 107.38 C 464.29 108.05 471.17 105.39 477.71 102.78 C 488.14 98.54 498.79 94.84 509.52 91.42 C 509.42 89.98 509.34 88.53 509.26 87.09 M 510.11 87.22 C 510.30 96.18 510.12 105.40 512.88 114.02 C 513.55 116.70 516.04 119.06 518.95 118.54 C 521.29 118.84 524.24 116.58 526.04 118.90 C 526.98 119.73 528.74 121.12 527.40 122.43 C 521.32 129.44 514.49 135.76 508.27 142.66 C 515.75 146.30 523.51 149.39 531.56 151.52 C 527.04 151.73 523.04 149.29 518.80 148.16 C 519.08 150.42 521.55 150.91 523.15 151.96 C 534.85 157.96 548.00 163.37 561.41 161.05 C 558.27 158.21 553.74 157.87 550.20 155.65 C 544.85 152.36 538.42 154.08 532.65 152.39 C 532.40 152.17 531.88 151.75 531.63 151.54 C 536.07 152.69 540.68 152.91 545.24 152.58 C 546.69 148.84 549.54 145.88 551.78 142.61 C 559.97 131.88 568.62 120.70 571.22 107.11 C 572.27 101.54 572.78 94.26 567.59 90.52 C 562.13 86.98 555.31 86.93 549.06 86.09 C 542.37 84.90 535.67 88.10 529.03 86.31 C 522.89 84.60 515.94 84.28 510.11 87.22 M 475.46 104.33 C 469.64 106.58 463.45 108.57 457.13 108.00 C 453.08 107.63 448.93 107.68 445.05 109.03 C 443.64 109.55 441.63 109.96 441.80 111.90 C 441.39 117.74 444.26 123.60 448.91 127.11 C 449.87 127.75 452.53 129.27 452.64 127.08 C 452.33 123.98 448.41 122.30 448.25 118.99 C 447.61 116.51 449.98 115.25 451.65 114.08 C 451.51 116.06 450.78 118.20 451.82 120.07 C 453.16 122.75 455.86 124.31 458.18 126.05 C 461.08 121.21 465.35 117.18 470.94 115.76 C 475.70 113.99 480.89 113.63 485.93 114.01 C 494.86 114.77 503.80 115.44 512.75 115.80 C 510.04 108.22 509.88 100.12 509.56 92.17 C 497.97 95.55 486.66 99.84 475.46 104.33 M 470.94 115.76 C 468.67 117.70 465.53 118.29 463.38 120.43 C 461.29 122.06 460.53 124.87 458.38 126.41 C 454.06 124.81 449.93 120.68 450.55 115.69 L 449.02 116.77 C 447.68 121.29 452.87 123.56 453.70 127.56 C 456.20 128.42 458.28 130.06 460.22 131.80 C 465.19 136.58 468.82 142.83 469.21 149.82 C 472.29 153.74 475.46 157.87 479.98 160.21 C 483.95 158.40 486.27 154.57 489.55 151.88 C 494.53 147.50 500.24 143.76 506.69 141.95 C 509.14 141.24 510.66 139.09 512.38 137.35 C 517.41 131.95 522.94 126.97 527.46 121.12 C 526.09 120.17 524.99 117.91 523.00 118.67 C 519.50 119.44 515.37 119.73 513.03 116.43 C 503.34 116.04 493.67 115.24 484.01 114.49 C 479.59 114.05 475.32 115.50 470.94 115.76 M 484.88 157.51 C 488.71 157.50 492.99 156.51 496.40 158.78 C 501.22 161.72 503.56 167.05 506.05 171.86 C 504.69 171.76 503.33 171.66 501.98 171.56 C 501.56 171.57 500.71 171.59 500.28 171.61 C 500.43 171.32 500.73 170.75 500.87 170.46 C 502.18 170.73 503.49 170.99 504.80 171.23 C 502.65 166.08 499.56 160.54 494.09 158.40 C 489.42 157.04 484.47 158.15 480.27 160.38 C 483.69 163.08 487.20 165.92 488.93 170.06 C 491.48 174.55 491.14 180.81 496.03 183.74 C 495.62 181.29 495.04 178.88 494.37 176.50 C 495.50 178.17 496.08 180.10 496.64 182.02 C 496.62 182.62 496.58 183.82 496.56 184.42 C 493.76 184.97 491.01 185.66 488.25 186.34 C 487.27 187.48 487.34 188.96 487.27 190.36 L 486.16 190.16 C 486.21 190.88 486.31 192.31 486.35 193.03 C 483.08 192.06 479.87 190.83 476.48 190.37 C 473.33 187.90 471.20 184.58 470.02 180.76 C 464.40 190.14 461.43 200.88 458.23 211.28 C 473.62 220.86 489.49 229.69 504.93 239.21 C 517.73 247.35 530.12 257.43 536.93 271.31 C 540.08 271.19 543.17 270.52 546.13 269.47 C 557.63 265.57 568.62 260.27 579.20 254.34 C 593.65 246.01 607.81 236.38 618.30 223.21 C 622.69 217.38 626.62 210.58 626.81 203.12 C 625.50 198.98 621.07 196.82 618.11 193.88 C 602.76 180.97 584.93 171.50 566.96 162.83 C 565.40 162.18 563.85 160.92 562.08 161.49 C 554.21 163.34 546.04 161.80 538.50 159.32 C 527.12 155.52 516.66 149.38 506.95 142.43 C 498.33 145.18 490.79 150.72 484.88 157.51 M 451.27 146.74 C 452.25 148.67 453.44 150.49 454.80 152.19 C 453.33 153.14 452.11 155.37 450.10 154.88 C 447.38 153.70 444.62 151.45 441.48 152.49 C 438.55 153.66 436.52 156.24 434.09 158.14 C 437.08 165.23 441.52 171.66 446.72 177.30 C 448.94 179.88 452.94 181.10 455.86 178.91 C 458.74 177.40 459.69 173.17 462.97 172.59 C 470.47 176.43 477.72 181.21 486.08 183.02 C 487.25 183.33 488.75 183.15 489.50 184.32 C 491.31 184.29 493.13 184.23 494.95 184.15 C 490.38 179.87 490.59 173.08 487.14 168.11 C 484.87 163.91 480.40 161.84 476.83 158.96 C 474.07 156.85 471.85 154.15 469.77 151.40 C 469.25 151.41 468.20 151.43 467.67 151.45 C 463.88 146.56 457.07 144.73 451.27 146.74 M 546.06 153.26 C 546.59 153.86 546.59 153.86 546.06 153.26 M 469.91 177.07 C 470.70 180.60 471.65 184.29 473.95 187.17 C 476.79 190.04 481.01 190.61 484.66 191.94 C 484.46 190.26 484.00 188.47 484.75 186.86 C 486.08 186.06 487.48 185.40 488.97 184.89 C 482.52 182.57 475.86 180.61 469.91 177.07 M 627.20 206.28 C 624.75 218.45 615.91 227.97 606.94 235.96 C 592.34 248.42 575.45 257.97 557.91 265.63 C 551.14 268.37 544.32 271.48 536.95 272.06 C 542.33 282.49 552.97 291.06 565.06 291.32 C 574.88 291.45 583.84 286.26 591.06 280.01 C 603.73 268.87 613.04 254.53 621.22 239.92 C 622.36 238.18 623.08 235.95 625.00 234.89 C 631.74 231.60 639.14 229.57 645.75 226.11 C 641.68 217.91 635.17 210.82 627.20 206.28 M 456.96 216.76 C 450.56 227.77 445.35 239.44 440.62 251.24 C 441.46 251.75 442.30 252.27 443.14 252.80 C 443.07 255.01 443.04 257.23 443.45 259.41 C 443.24 259.14 442.82 258.58 442.61 258.30 C 442.48 256.42 442.40 254.55 442.33 252.68 C 436.85 251.80 430.57 249.83 425.39 252.37 C 424.02 257.25 425.97 262.37 426.48 267.28 C 431.98 266.95 437.43 267.99 442.91 268.20 C 443.29 267.67 444.06 266.61 444.44 266.08 C 443.93 263.89 443.58 261.67 443.46 259.44 C 446.16 265.90 445.59 272.88 445.43 279.70 C 452.13 279.82 458.82 280.06 465.52 280.08 C 466.07 276.60 464.37 272.69 466.68 269.63 C 471.77 261.21 476.88 252.77 482.79 244.89 C 475.83 235.68 468.82 226.49 461.84 217.30 C 461.11 216.32 460.50 215.28 460.01 214.17 C 458.28 213.97 457.67 215.58 456.96 216.76 M 461.30 214.78 C 462.60 217.62 464.70 219.97 466.58 222.45 C 472.09 229.72 477.62 236.96 483.14 244.22 C 486.23 240.32 490.74 237.05 492.19 232.17 C 484.87 228.11 477.75 223.68 470.52 219.47 C 467.51 217.77 464.75 215.50 461.30 214.78 M 487.40 240.44 C 480.48 248.15 475.15 257.09 469.71 265.86 C 468.49 267.95 467.03 269.93 466.16 272.21 C 466.00 274.79 466.42 277.38 466.15 279.97 C 471.33 280.31 476.53 279.96 481.72 279.95 C 481.47 276.25 481.51 272.54 481.79 268.85 C 482.33 263.46 479.86 258.19 480.86 252.80 C 481.44 250.57 484.17 250.65 485.99 250.55 C 490.51 250.66 495.21 250.80 499.45 252.54 C 499.05 256.66 500.14 260.67 501.22 264.60 C 502.58 269.49 501.73 274.58 501.82 279.57 C 503.35 280.97 504.89 282.71 504.70 284.96 C 504.12 291.03 505.01 297.08 505.73 303.09 C 505.97 304.99 504.27 305.85 502.85 306.56 C 506.51 304.00 504.49 299.36 504.09 295.77 C 499.23 298.02 493.88 295.55 488.78 296.38 C 488.73 297.23 488.63 298.92 488.58 299.77 C 486.84 300.34 485.01 300.56 483.20 300.71 C 483.41 300.41 483.82 299.82 484.02 299.53 C 485.39 299.79 486.77 299.78 488.16 299.49 C 488.29 295.68 486.73 292.03 487.07 288.21 L 485.71 287.85 C 486.13 287.71 486.97 287.42 487.39 287.28 C 487.45 285.33 487.72 282.85 490.08 282.45 C 494.10 282.18 498.32 282.51 502.17 283.79 C 502.53 285.90 502.70 288.03 503.16 290.13 C 504.91 286.53 504.45 280.94 500.06 279.55 C 494.70 278.95 489.38 280.35 484.02 280.40 C 465.68 281.04 447.32 280.49 429.00 279.76 C 408.09 279.60 387.23 278.28 366.42 276.41 C 370.69 275.80 374.99 276.61 379.27 276.70 C 380.61 273.63 380.19 270.48 378.12 267.86 C 377.27 268.00 375.58 268.29 374.73 268.43 C 374.64 268.17 374.45 267.65 374.35 267.39 C 375.72 267.44 377.09 267.50 378.46 267.56 C 379.65 263.82 379.69 259.83 379.30 255.96 C 378.29 252.52 374.24 251.28 371.00 251.50 C 367.96 251.84 363.94 252.68 362.91 256.02 C 361.57 259.69 361.23 264.16 363.61 267.48 C 366.69 268.84 370.25 268.23 373.53 268.60 C 370.00 269.35 366.44 268.72 362.90 268.53 C 362.30 271.48 362.33 274.50 362.30 277.50 C 363.05 277.27 364.55 276.81 365.30 276.57 C 365.38 276.80 365.53 277.24 365.60 277.46 C 363.56 277.64 360.89 278.45 360.99 280.98 C 360.40 287.63 358.72 294.33 359.76 301.02 C 361.73 306.09 368.35 304.17 372.56 304.46 C 371.98 300.97 371.31 297.47 371.37 293.92 C 371.47 292.76 371.15 291.18 372.50 290.63 C 376.89 289.92 381.39 290.50 385.72 291.36 C 385.57 291.85 385.26 292.82 385.10 293.31 L 385.10 291.84 C 380.85 291.04 376.49 290.61 372.19 291.24 C 371.68 295.33 372.35 299.41 373.01 303.44 C 377.04 303.26 381.04 303.83 385.06 304.10 C 387.28 304.07 387.20 301.21 386.44 299.82 C 386.74 300.05 387.33 300.52 387.63 300.76 C 387.45 302.02 387.24 303.27 387.04 304.53 C 396.05 304.74 405.10 304.70 414.07 305.85 C 421.33 306.83 428.62 307.53 435.94 307.87 C 447.33 308.84 458.68 306.91 470.04 306.32 C 480.91 305.20 491.88 305.59 502.74 306.62 C 495.89 307.39 489.00 305.90 482.11 306.30 C 482.80 321.82 490.87 335.81 492.27 351.19 C 495.93 352.23 495.32 356.79 496.62 359.66 C 495.05 357.59 494.56 355.00 494.06 352.52 C 489.87 351.85 485.61 352.13 481.39 352.26 C 482.58 363.98 484.65 375.59 486.89 387.16 C 488.05 393.21 488.91 399.39 491.15 405.18 L 491.82 405.68 C 496.36 405.40 501.11 404.40 505.48 406.23 C 506.80 397.29 501.77 389.10 501.64 380.39 C 503.29 389.22 507.30 397.86 505.98 407.03 C 508.73 415.40 509.56 424.24 512.19 432.66 C 512.62 434.20 513.04 435.77 513.50 437.32 C 513.27 437.06 512.82 436.54 512.60 436.28 C 510.59 429.25 508.64 422.19 507.54 414.96 C 506.77 412.07 506.44 408.59 504.13 406.51 C 499.80 404.86 495.01 406.15 490.54 406.55 C 491.63 425.59 496.30 444.30 503.46 461.95 C 508.44 460.75 513.49 459.88 518.64 460.16 C 517.64 452.44 513.86 445.22 513.53 437.42 C 514.89 442.33 516.07 447.29 517.45 452.19 C 518.13 454.70 518.78 457.21 519.38 459.74 C 519.98 459.91 521.16 460.25 521.75 460.43 C 522.83 467.67 523.62 474.95 524.33 482.24 C 524.72 486.06 525.19 489.87 525.51 493.70 C 529.53 492.75 533.83 491.77 536.92 488.83 C 538.99 486.91 539.65 484.08 540.20 481.43 L 539.68 481.52 C 536.15 470.98 532.52 460.46 529.19 449.85 C 527.03 442.94 524.64 436.08 523.35 428.93 C 518.59 409.38 509.53 390.41 510.28 369.89 C 510.22 363.17 513.15 357.04 514.61 350.62 C 517.43 343.04 520.06 335.30 522.35 327.56 C 528.59 310.71 533.82 293.42 537.80 275.90 C 536.08 269.83 532.60 264.23 528.23 259.68 L 528.31 259.30 C 521.02 251.17 512.30 244.47 503.02 238.77 C 499.73 236.85 496.64 234.52 493.02 233.25 C 491.52 235.92 489.34 238.10 487.40 240.44 M 481.71 251.76 C 480.62 256.95 482.13 262.14 482.74 267.28 C 485.68 267.25 488.63 267.07 491.56 267.39 C 488.60 267.74 485.62 267.91 482.64 267.76 C 482.12 271.74 482.13 275.77 482.38 279.77 C 488.64 279.96 494.84 278.17 501.09 279.04 C 501.33 275.20 501.58 271.35 501.24 267.52 C 498.39 269.11 495.07 268.46 491.97 268.46 C 492.49 268.26 493.54 267.87 494.06 267.67 C 496.22 268.14 498.43 268.03 500.54 267.34 C 500.63 262.34 498.20 257.69 498.62 252.65 C 493.09 251.48 487.32 250.59 481.71 251.76 M 426.29 268.26 C 425.24 271.76 425.80 275.50 425.76 279.10 C 432.09 279.15 438.41 279.65 444.74 279.69 C 444.83 275.55 444.79 271.41 445.02 267.28 C 439.39 271.00 432.27 266.12 426.29 268.26 M 488.19 285.93 C 488.40 289.21 488.20 292.62 489.41 295.74 C 494.09 294.96 498.94 297.21 503.45 295.41 C 503.43 294.52 503.39 292.74 503.37 291.84 C 501.95 289.45 501.79 286.63 501.57 283.94 C 498.02 283.53 494.48 282.90 490.90 282.84 C 489.40 282.77 487.83 284.39 488.19 285.93 M 390.71 305.37 C 390.44 321.34 382.06 335.70 380.48 351.44 C 384.29 351.48 388.09 351.53 391.89 351.59 C 397.02 336.55 401.91 321.33 404.39 305.59 C 399.83 305.39 395.27 305.23 390.71 305.37 M 468.10 307.05 C 470.75 322.28 475.15 337.18 480.57 351.65 C 484.25 351.58 487.94 351.34 491.63 351.47 C 491.17 341.98 487.17 333.23 484.83 324.14 C 483.32 318.29 481.71 312.39 481.47 306.32 C 477.00 306.38 472.54 306.71 468.10 307.05 M 409.69 341.08 C 409.17 347.22 410.82 353.46 409.37 359.52 C 407.47 366.19 401.01 370.02 398.16 376.15 C 396.85 378.91 397.31 382.35 399.64 384.41 C 397.54 387.44 401.14 389.97 401.19 393.06 C 401.45 395.87 403.15 398.55 406.02 399.26 C 406.42 395.33 403.89 391.01 406.34 387.44 C 408.78 383.75 411.61 380.31 414.65 377.09 C 416.50 381.45 413.23 387.51 418.27 390.36 C 420.10 383.07 420.52 375.50 420.26 368.01 C 420.08 362.88 421.12 357.79 422.92 353.01 C 428.80 336.95 439.36 323.30 447.88 308.64 C 437.92 308.99 427.99 308.01 418.08 307.10 C 414.05 318.06 410.65 329.39 409.69 341.08 M 565.49 368.31 C 564.97 369.77 563.86 371.27 564.46 372.89 C 566.37 380.49 567.77 388.20 568.95 395.95 C 571.45 413.06 572.52 430.34 574.17 447.54 C 574.78 457.64 575.58 467.84 577.09 477.88 C 577.09 478.43 577.07 479.54 577.07 480.09 C 575.82 480.19 574.59 480.30 573.36 480.42 C 575.56 485.48 576.72 490.94 576.98 496.44 C 579.61 496.09 583.05 497.44 585.00 495.08 C 589.60 489.91 597.48 490.43 602.47 485.91 C 599.63 486.03 600.13 483.15 599.65 481.29 L 599.57 481.29 C 595.49 462.06 589.58 443.27 584.70 424.24 C 581.42 411.77 577.64 399.35 575.98 386.53 C 574.56 373.74 574.61 360.86 575.18 348.03 C 571.41 354.51 568.59 361.49 565.49 368.31 M 407.12 388.91 C 410.19 393.75 413.92 398.15 417.10 402.92 C 416.72 403.86 416.36 404.81 416.01 405.76 C 416.97 407.41 418.45 408.96 418.47 410.98 C 418.12 412.33 417.61 413.65 417.30 415.03 C 417.74 416.96 419.44 418.23 420.68 419.66 C 425.65 413.77 432.17 409.22 439.12 405.95 C 437.22 403.22 435.21 400.52 432.78 398.24 C 429.85 398.73 427.06 398.14 425.70 395.26 C 424.46 395.34 423.23 395.42 422.00 395.48 C 420.98 393.96 419.94 392.46 418.88 390.98 C 413.91 389.80 415.34 383.78 412.17 380.88 C 410.59 383.50 406.98 385.61 407.12 388.91 M 428.01 413.57 C 425.26 415.69 422.38 417.91 420.88 421.14 C 424.77 421.95 428.50 420.28 431.95 418.69 C 430.42 417.97 428.76 417.47 427.58 416.21 C 429.41 416.77 431.21 417.45 433.02 418.10 L 431.98 415.93 L 433.79 416.98 C 436.39 413.99 438.64 410.59 439.25 406.60 C 435.19 408.37 431.53 410.92 428.01 413.57 M 503.98 462.72 C 504.95 477.27 507.74 491.63 511.41 505.72 C 515.56 506.74 520.33 507.46 524.22 505.22 C 526.88 502.04 525.40 497.66 524.99 493.99 C 523.69 482.90 522.76 471.77 521.22 460.70 C 515.41 460.55 509.50 460.73 503.98 462.72 M 540.86 481.94 C 540.07 484.55 539.40 487.41 537.32 489.36 C 534.16 492.24 529.88 493.39 525.78 494.15 C 526.32 498.10 526.97 502.26 525.05 505.99 C 540.76 504.90 556.44 503.46 572.07 501.49 C 575.65 501.40 576.52 496.88 576.27 494.04 C 575.50 489.42 574.99 484.16 572.16 480.40 C 561.72 480.41 551.26 480.98 540.86 481.94 M 602.30 486.98 C 597.53 490.47 591.15 490.71 586.52 494.45 C 583.91 496.35 582.66 500.45 584.76 503.17 C 586.87 505.35 590.11 505.64 592.97 506.09 C 601.97 506.91 610.99 505.70 619.99 505.36 C 627.26 504.73 634.70 504.54 641.70 502.21 C 641.51 497.12 640.30 492.18 639.36 487.21 C 628.23 487.14 617.09 487.05 606.01 485.91 C 604.62 485.54 603.38 486.24 602.30 486.98 Z" />
<path fill="#020202" opacity="1.00" d=" M 433.05 412.24 C 434.98 412.29 434.22 416.45 432.49 415.79 C 432.32 414.65 432.29 413.17 433.05 412.24 Z" />
<path fill="#020202" opacity="1.00" d=" M 379.97 429.16 L 380.49 428.71 C 392.98 437.93 409.12 438.74 424.06 438.36 C 424.27 439.30 424.53 440.23 424.82 441.17 L 424.99 441.97 C 425.26 443.31 425.49 444.65 425.70 446.01 C 423.76 446.80 421.96 448.19 419.80 448.24 C 407.02 447.04 394.21 444.50 382.52 439.08 C 382.55 438.59 382.62 437.62 382.65 437.14 C 382.25 437.30 381.46 437.63 381.06 437.79 C 380.82 434.91 379.40 432.05 379.97 429.16 Z" />
<path fill="#020202" opacity="1.00" d=" M 378.70 430.46 C 379.83 433.84 380.37 437.38 381.23 440.84 C 379.50 445.91 377.19 450.80 373.96 455.08 C 372.08 457.49 370.93 460.33 370.09 463.25 L 368.88 462.69 C 369.69 458.66 371.55 454.96 372.84 451.08 C 375.24 444.34 376.86 437.36 378.70 430.46 Z" />
<path fill="#020202" opacity="1.00" d=" M 381.82 439.60 C 393.64 444.81 406.37 447.71 419.23 448.79 C 415.73 452.13 411.02 453.96 407.08 456.77 C 399.29 455.76 391.17 454.71 384.29 450.69 C 383.20 447.06 382.37 443.34 381.82 439.60 Z" />
<path fill="#020202" opacity="1.00" d=" M 375.24 454.41 C 377.99 450.85 379.45 446.55 381.69 442.69 C 382.22 445.12 382.89 447.54 383.28 450.01 C 381.20 455.13 376.37 458.75 374.87 464.06 C 373.54 463.71 372.22 463.35 370.91 462.99 C 371.63 459.81 373.25 456.96 375.24 454.41 Z" />
<path fill="#020202" opacity="1.00" d=" M 422.01 448.86 C 423.09 447.94 424.29 447.17 425.60 446.56 L 425.81 447.60 C 426.24 449.85 426.68 452.13 426.97 454.42 C 427.01 455.88 426.51 457.29 426.19 458.71 C 422.00 466.56 421.57 475.83 421.24 484.56 C 418.60 484.67 416.79 482.41 414.69 481.17 C 413.98 469.94 416.69 458.74 422.01 448.86 Z" />
<path fill="#020202" opacity="1.00" d=" M 404.36 459.72 C 409.43 455.52 415.39 452.61 420.92 449.08 C 418.27 455.50 415.46 461.97 414.51 468.92 C 414.00 472.84 414.20 476.80 414.06 480.75 C 411.98 479.45 409.87 478.18 407.68 477.10 C 408.08 476.49 408.49 475.90 408.91 475.31 C 408.00 472.58 406.47 470.12 404.51 468.02 C 404.76 466.19 405.06 464.38 405.44 462.58 C 405.17 461.87 404.63 460.44 404.36 459.72 Z" />
<path fill="#020202" opacity="1.00" d=" M 376.90 460.85 C 379.43 457.72 381.39 454.20 383.86 451.03 C 384.36 453.29 384.89 455.55 385.43 457.81 C 384.89 459.25 384.53 460.76 384.24 462.28 C 381.46 461.89 379.52 464.01 377.13 464.67 C 374.48 464.69 376.09 461.90 376.90 460.85 Z" />
<path fill="#020202" opacity="1.00" d=" M 384.73 452.06 C 391.19 454.66 397.94 456.39 404.86 457.20 L 405.59 458.15 C 404.80 458.23 403.22 458.38 402.43 458.46 L 402.71 459.59 C 400.64 459.00 398.73 459.85 396.91 460.72 C 399.29 460.21 401.83 460.84 404.10 459.84 C 404.19 460.50 404.38 461.83 404.48 462.49 C 403.28 462.69 398.81 459.82 400.10 462.69 C 401.51 462.76 402.94 462.80 404.37 462.81 C 404.28 464.45 404.17 466.09 404.04 467.73 C 402.02 466.50 399.62 464.44 397.14 465.16 C 396.11 466.99 397.20 469.16 397.10 471.14 C 395.24 470.58 394.95 468.49 394.14 467.02 C 394.63 466.86 395.60 466.52 396.08 466.35 C 396.27 465.00 397.16 464.10 398.04 463.17 C 396.84 461.63 393.52 463.42 392.91 461.08 C 391.88 458.17 389.08 456.25 385.97 457.21 C 385.54 455.49 385.11 453.77 384.73 452.06 Z" />
<path fill="#020202" opacity="1.00" d=" M 425.42 461.49 C 425.72 460.25 426.48 459.58 427.71 459.48 C 429.69 470.96 431.00 482.57 433.32 494.00 C 433.05 494.33 432.52 495.01 432.26 495.35 C 428.98 491.60 424.89 488.72 421.08 485.57 C 422.44 481.88 421.97 477.90 422.54 474.08 C 423.12 469.81 423.99 465.55 425.42 461.49 Z" />
<path fill="#020202" opacity="1.00" d=" M 383.91 463.04 C 384.42 463.26 385.42 463.68 385.92 463.90 C 386.24 465.23 387.03 466.26 388.21 466.99 C 387.30 466.94 385.47 466.83 384.55 466.77 C 384.56 466.42 384.59 465.72 384.60 465.37 L 382.67 466.21 C 382.98 465.42 383.60 463.84 383.91 463.04 Z" />
<path fill="#020202" opacity="1.00" d=" M 368.23 463.11 C 368.69 463.28 369.61 463.64 370.07 463.81 C 369.85 470.55 371.67 477.26 370.31 483.98 C 368.82 485.87 367.37 487.79 365.88 489.69 C 365.57 489.33 364.95 488.62 364.64 488.26 C 366.68 480.03 367.59 471.55 368.23 463.11 Z" />
<path fill="#020202" opacity="1.00" d=" M 370.81 463.66 C 372.39 464.06 373.98 464.45 375.58 464.84 C 376.17 469.55 376.42 474.31 376.24 479.05 C 375.13 481.21 372.64 482.34 370.99 484.03 C 372.46 477.24 370.27 470.46 370.81 463.66 Z" />
<path fill="#020202" opacity="1.00" d=" M 379.43 464.04 C 380.40 463.74 382.33 463.13 383.30 462.83 C 382.49 465.83 379.69 467.53 377.92 469.92 C 378.78 469.75 380.50 469.41 381.36 469.24 C 380.47 471.21 379.40 473.16 378.79 475.26 C 379.72 474.10 380.64 472.95 381.56 471.79 C 382.45 475.32 379.35 477.05 376.97 478.73 C 376.82 474.16 376.87 469.58 376.27 465.05 C 377.12 465.32 378.80 465.85 379.65 466.12 C 379.59 465.60 379.49 464.56 379.43 464.04 Z" />
<path fill="#020202" opacity="1.00" d=" M 382.42 469.10 C 381.76 467.70 382.18 467.07 383.66 467.20 C 384.15 468.51 383.73 469.14 382.42 469.10 Z" />
<path fill="#020202" opacity="1.00" d=" M 397.71 466.42 C 399.90 466.98 402.67 466.99 404.15 469.00 C 404.63 470.88 404.08 472.83 404.08 474.74 C 401.85 473.82 399.67 472.79 397.44 471.88 C 397.53 470.05 397.62 468.23 397.71 466.42 Z" />
<path fill="#020202" opacity="1.00" d=" M 385.38 468.37 C 386.35 468.47 388.28 468.69 389.25 468.79 C 387.51 471.07 384.99 472.55 382.56 473.97 C 383.18 472.43 383.95 470.96 384.63 469.46 L 385.52 469.56 L 385.38 468.37 Z" />
<path fill="#020202" opacity="1.00" d=" M 382.35 470.69 C 382.77 471.01 382.77 471.01 382.35 470.69 Z" />
<path fill="#020202" opacity="1.00" d=" M 383.36 474.66 C 385.25 473.06 387.27 471.61 389.30 470.18 C 389.99 471.02 390.68 471.89 391.36 472.77 L 393.21 471.90 C 391.03 474.03 394.02 476.01 394.56 478.00 C 390.80 476.95 387.08 475.81 383.36 474.66 Z" />
<path fill="#020202" opacity="1.00" d=" M 405.10 469.74 C 406.48 471.35 407.45 473.22 408.21 475.22 C 407.25 475.58 406.31 475.94 405.36 476.30 C 403.93 474.34 405.08 471.87 405.10 469.74 Z" />
<path fill="#020202" opacity="1.00" d=" M 394.04 474.88 C 392.11 474.02 393.89 471.09 395.60 472.22 C 395.98 473.23 395.05 474.64 394.04 474.88 Z" />
<path fill="#020202" opacity="1.00" d=" M 396.54 472.13 C 398.84 473.15 401.12 474.21 403.45 475.15 C 403.39 476.17 403.26 478.21 403.20 479.23 C 403.45 478.55 403.96 477.20 404.22 476.52 C 405.20 476.37 407.16 476.08 408.14 475.93 L 407.25 477.70 C 409.73 478.74 412.04 480.14 414.14 481.82 C 411.15 485.45 407.71 488.66 404.37 491.96 C 402.94 489.68 401.48 487.42 400.11 485.11 C 401.29 483.11 402.64 481.13 403.07 478.80 C 401.69 480.74 400.79 482.99 399.19 484.79 C 398.68 483.22 398.19 481.56 396.79 480.55 C 397.41 482.15 398.21 483.67 398.98 485.23 C 392.02 482.90 384.79 481.29 378.02 478.52 C 379.25 477.71 380.50 476.91 381.75 476.13 C 382.00 476.84 382.51 478.27 382.76 478.98 C 382.66 477.99 382.47 476.00 382.38 475.00 C 387.18 476.75 392.37 477.51 396.90 479.97 C 394.31 477.83 395.19 474.69 396.54 472.13 Z" />
<path fill="#020202" opacity="1.00" d=" M 371.78 483.91 C 374.14 482.92 375.46 480.20 377.92 479.59 C 385.13 481.34 392.06 484.14 399.28 485.80 C 400.77 487.37 401.93 489.17 403.08 491.00 C 393.11 486.54 381.99 484.16 371.09 485.93 L 371.78 483.91 Z" />
<path fill="#020202" opacity="1.00" d=" M 404.97 492.29 C 408.28 488.91 411.86 485.75 414.76 481.99 C 416.33 483.10 417.93 484.18 419.54 485.25 C 414.71 488.53 410.52 492.58 406.81 497.07 C 406.42 495.38 405.73 493.83 404.97 492.29 Z" />
</g>
<g id="#5480c1ff">
<path fill="#5480c1" opacity="1.00" d=" M 377.17 56.20 C 379.84 55.36 384.08 55.40 384.60 58.94 C 384.82 68.92 384.61 78.92 384.47 88.91 C 384.56 93.16 377.71 94.17 376.59 90.02 C 373.59 81.05 370.77 72.02 367.97 62.99 C 367.19 61.07 367.88 58.60 369.86 57.74 C 372.22 56.93 374.72 56.67 377.17 56.20 Z" />
<path fill="#5480c1" opacity="1.00" d=" M 339.27 71.34 C 341.22 69.63 344.11 70.99 344.84 73.24 C 348.23 80.20 351.69 87.14 355.03 94.13 C 356.30 96.09 355.40 99.06 353.00 99.55 C 350.86 100.24 349.37 98.32 348.02 97.03 C 343.13 91.88 338.11 86.85 333.22 81.70 C 331.95 80.52 331.07 78.61 332.09 76.96 C 334.17 74.73 336.76 73.04 339.27 71.34 Z" />
<path fill="#5480c1" opacity="1.00" d=" M 378.43 96.59 C 380.55 95.93 384.37 94.82 385.29 97.68 C 385.91 100.31 387.20 103.27 386.17 105.90 C 383.97 106.98 379.75 108.26 378.91 104.96 C 378.45 102.29 376.37 98.88 378.43 96.59 Z" />
<path fill="#5480c1" opacity="1.00" d=" M 359.28 102.36 C 361.65 100.48 363.61 103.35 364.87 105.07 C 365.80 106.65 367.53 108.07 367.42 110.04 C 366.11 111.97 363.62 114.65 361.11 113.15 C 359.25 111.24 357.59 109.12 356.25 106.83 C 355.29 104.71 357.79 103.29 359.28 102.36 Z" />
<path fill="#5480c1" opacity="1.00" d=" M 518.80 148.16 C 523.04 149.29 527.04 151.73 531.56 151.52 L 531.63 151.54 C 531.88 151.75 532.40 152.17 532.65 152.39 C 538.42 154.08 544.85 152.36 550.20 155.65 C 553.74 157.87 558.27 158.21 561.41 161.05 C 548.00 163.37 534.85 157.96 523.15 151.96 C 521.55 150.91 519.08 150.42 518.80 148.16 Z" />
<path fill="#5480c1" opacity="1.00" d=" M 546.06 153.26 C 546.59 153.86 546.59 153.86 546.06 153.26 Z" />
<path fill="#5480c1" opacity="1.00" d=" M 493.79 169.79 C 496.16 169.87 498.54 169.97 500.87 170.46 C 500.73 170.75 500.43 171.32 500.28 171.61 C 500.71 171.59 501.56 171.57 501.98 171.56 C 499.35 174.53 497.16 178.00 496.64 182.02 C 496.08 180.10 495.50 178.17 494.37 176.50 C 493.62 174.34 493.65 172.04 493.79 169.79 Z" />
<path fill="#5480c1" opacity="1.00" d=" M 476.48 190.37 C 479.87 190.83 483.08 192.06 486.35 193.03 C 486.15 193.75 485.73 195.18 485.53 195.90 C 481.71 195.70 478.40 193.66 476.48 190.37 Z" />
<path fill="#5480c1" opacity="1.00" d=" M 461.30 214.78 C 464.75 215.50 467.51 217.77 470.52 219.47 C 477.75 223.68 484.87 228.11 492.19 232.17 C 490.74 237.05 486.23 240.32 483.14 244.22 C 477.62 236.96 472.09 229.72 466.58 222.45 C 464.70 219.97 462.60 217.62 461.30 214.78 Z" />
<path fill="#5480c1" opacity="1.00" d=" M 362.91 256.02 C 363.94 252.68 367.96 251.84 371.00 251.50 C 374.24 251.28 378.29 252.52 379.30 255.96 C 379.69 259.83 379.65 263.82 378.46 267.56 C 377.09 267.50 375.72 267.44 374.35 267.39 C 374.45 267.65 374.64 268.17 374.73 268.43 C 374.43 268.47 373.83 268.56 373.53 268.60 C 370.25 268.23 366.69 268.84 363.61 267.48 C 361.23 264.16 361.57 259.69 362.91 256.02 Z" />
<path fill="#5480c1" opacity="1.00" d=" M 425.39 252.37 C 430.57 249.83 436.85 251.80 442.33 252.68 C 442.40 254.55 442.48 256.42 442.61 258.30 C 442.82 258.58 443.24 259.14 443.45 259.41 L 443.46 259.44 C 443.58 261.67 443.93 263.89 444.44 266.08 C 444.06 266.61 443.29 267.67 442.91 268.20 C 437.43 267.99 431.98 266.95 426.48 267.28 C 425.97 262.37 424.02 257.25 425.39 252.37 Z" />
<path fill="#5480c1" opacity="1.00" d=" M 491.56 267.39 C 492.39 267.46 493.22 267.55 494.06 267.67 C 493.54 267.87 492.49 268.26 491.97 268.46 C 495.07 268.46 498.39 269.11 501.24 267.52 C 501.58 271.35 501.33 275.20 501.09 279.04 C 494.84 278.17 488.64 279.96 482.38 279.77 C 482.13 275.77 482.12 271.74 482.64 267.76 C 485.62 267.91 488.60 267.74 491.56 267.39 Z" />
<path fill="#5480c1" opacity="1.00" d=" M 426.29 268.26 C 432.27 266.12 439.39 271.00 445.02 267.28 C 444.79 271.41 444.83 275.55 444.74 279.69 C 438.41 279.65 432.09 279.15 425.76 279.10 C 425.80 275.50 425.24 271.76 426.29 268.26 Z" />
<path fill="#5480c1" opacity="1.00" d=" M 365.30 276.57 C 365.58 276.53 366.14 276.45 366.42 276.41 C 387.23 278.28 408.09 279.60 429.00 279.76 C 447.32 280.49 465.68 281.04 484.02 280.40 C 489.38 280.35 494.70 278.95 500.06 279.55 C 504.45 280.94 504.91 286.53 503.16 290.13 C 502.70 288.03 502.53 285.90 502.17 283.79 C 498.32 282.51 494.10 282.18 490.08 282.45 C 487.72 282.85 487.45 285.33 487.39 287.28 C 486.97 287.42 486.13 287.71 485.71 287.85 C 481.83 287.05 477.85 286.93 473.91 287.07 C 473.54 291.03 473.96 295.01 474.72 298.91 C 477.83 298.84 480.95 298.95 484.02 299.53 C 483.82 299.82 483.41 300.41 483.20 300.71 C 485.01 300.56 486.84 300.34 488.58 299.77 C 488.63 298.92 488.73 297.23 488.78 296.38 C 493.88 295.55 499.23 298.02 504.09 295.77 C 504.49 299.36 506.51 304.00 502.85 306.56 L 502.74 306.62 C 491.88 305.59 480.91 305.20 470.04 306.32 C 458.68 306.91 447.33 308.84 435.94 307.87 C 428.62 307.53 421.33 306.83 414.07 305.85 C 405.10 304.70 396.05 304.74 387.04 304.53 C 387.24 303.27 387.45 302.02 387.63 300.76 C 387.33 300.52 386.74 300.05 386.44 299.82 C 385.56 297.76 384.92 295.57 385.10 293.31 C 385.26 292.82 385.57 291.85 385.72 291.36 C 381.39 290.50 376.89 289.92 372.50 290.63 C 371.15 291.18 371.47 292.76 371.37 293.92 C 371.31 297.47 371.98 300.97 372.56 304.46 C 368.35 304.17 361.73 306.09 359.76 301.02 C 358.72 294.33 360.40 287.63 360.99 280.98 C 360.89 278.45 363.56 277.64 365.60 277.46 C 365.53 277.24 365.38 276.80 365.30 276.57 M 388.66 286.90 C 388.22 290.55 389.03 294.18 389.31 297.81 C 392.91 297.91 396.45 298.62 400.02 298.94 C 401.30 299.20 402.24 298.76 402.87 297.64 C 402.39 294.15 401.28 290.78 400.92 287.27 C 396.85 286.93 392.70 285.65 388.66 286.90 Z" />
<path fill="#5480c1" opacity="1.00" d=" M 488.19 285.93 C 487.83 284.39 489.40 282.77 490.90 282.84 C 494.48 282.90 498.02 283.53 501.57 283.94 C 501.79 286.63 501.95 289.45 503.37 291.84 C 503.39 292.74 503.43 294.52 503.45 295.41 C 498.94 297.21 494.09 294.96 489.41 295.74 C 488.20 292.62 488.40 289.21 488.19 285.93 Z" />
<path fill="#5480c1" opacity="1.00" d=" M 390.71 305.37 C 395.27 305.23 399.83 305.39 404.39 305.59 C 401.91 321.33 397.02 336.55 391.89 351.59 C 388.09 351.53 384.29 351.48 380.48 351.44 C 382.06 335.70 390.44 321.34 390.71 305.37 Z" />
<path fill="#5480c1" opacity="1.00" d=" M 265.22 316.87 C 271.49 330.84 278.93 344.23 286.19 357.69 C 291.30 367.21 296.23 376.84 300.24 386.88 C 308.40 407.28 312.91 430.31 306.80 451.88 C 304.61 459.38 300.94 466.37 298.94 473.93 C 297.62 478.77 298.02 483.87 298.75 488.78 C 299.63 494.30 300.85 499.77 301.08 505.37 C 299.01 505.35 296.94 505.33 294.88 505.30 C 294.78 499.91 294.66 494.51 294.11 489.15 C 292.95 477.03 292.47 464.84 290.52 452.82 C 289.34 444.97 286.09 437.65 282.30 430.75 C 273.59 414.60 264.75 397.69 263.54 379.02 C 262.07 358.27 266.88 337.64 265.22 316.87 M 273.21 373.97 C 273.28 381.75 273.91 389.72 276.94 396.98 C 279.80 403.92 283.88 410.28 286.67 417.25 C 291.91 429.30 294.73 442.21 296.39 455.20 C 298.83 444.37 297.95 432.89 294.36 422.42 C 291.21 413.36 285.45 405.43 282.71 396.21 C 278.76 382.32 277.23 367.87 273.60 353.90 C 272.85 360.57 273.16 367.28 273.21 373.97 Z" />
<path fill="#5480c1" opacity="1.00" d=" M 685.70 357.59 C 691.29 346.81 697.15 336.15 701.70 324.88 C 701.46 335.61 702.91 346.25 704.70 356.80 C 707.14 371.05 707.89 386.01 702.84 399.81 C 699.83 408.14 696.00 416.13 691.84 423.93 C 688.31 430.61 684.78 437.50 683.84 445.10 C 682.20 457.28 682.45 469.61 681.99 481.87 C 681.85 485.81 681.96 489.75 682.14 493.69 C 680.10 493.85 678.06 494.01 676.03 494.17 C 675.99 489.84 676.26 485.52 677.00 481.25 C 677.76 476.10 678.42 470.64 676.54 465.65 C 673.78 458.18 668.92 451.67 666.48 444.07 C 661.88 430.70 662.88 416.08 666.35 402.58 C 670.44 386.68 678.05 372.01 685.70 357.59 M 693.27 369.21 C 691.76 377.76 690.80 386.41 688.76 394.86 C 686.53 404.40 680.25 412.34 677.71 421.78 C 675.28 430.60 675.02 440.28 678.13 448.96 C 678.75 436.23 681.68 423.63 686.82 411.97 C 690.31 403.79 695.68 396.16 696.48 387.07 C 697.21 377.68 696.59 368.21 695.45 358.88 C 693.95 362.12 693.91 365.75 693.27 369.21 Z" />
<path fill="#5480c1" opacity="1.00" d=" M 370.45 381.64 C 374.31 372.17 374.80 361.62 378.72 352.14 C 382.75 352.11 386.78 352.10 390.81 352.25 C 389.54 365.94 386.74 379.42 384.28 392.93 C 383.52 397.23 382.37 401.45 381.08 405.63 C 376.33 405.34 371.54 405.12 366.82 405.84 C 366.64 402.97 366.52 400.10 366.34 397.23 C 367.23 391.92 368.64 386.70 370.45 381.64 Z" />
<path fill="#5480c1" opacity="1.00" d=" M 481.39 352.26 C 485.61 352.13 489.87 351.85 494.06 352.52 C 494.56 355.00 495.05 357.59 496.62 359.66 C 497.64 362.56 498.36 365.56 499.09 368.55 C 500.02 372.48 501.03 376.39 501.64 380.39 C 501.77 389.10 506.80 397.29 505.48 406.23 C 501.11 404.40 496.36 405.40 491.82 405.68 L 491.15 405.18 C 488.91 399.39 488.05 393.21 486.89 387.16 C 484.65 375.59 482.58 363.98 481.39 352.26 Z" />
<path fill="#5480c1" opacity="1.00" d=" M 407.12 388.91 C 406.98 385.61 410.59 383.50 412.17 380.88 C 415.34 383.78 413.91 389.80 418.88 390.98 C 419.94 392.46 420.98 393.96 422.00 395.48 C 423.23 395.42 424.46 395.34 425.70 395.26 C 427.06 398.14 429.85 398.73 432.78 398.24 C 435.21 400.52 437.22 403.22 439.12 405.95 C 432.17 409.22 425.65 413.77 420.68 419.66 C 419.44 418.23 417.74 416.96 417.30 415.03 C 417.61 413.65 418.12 412.33 418.47 410.98 C 418.45 408.96 416.97 407.41 416.01 405.76 C 416.36 404.81 416.72 403.86 417.10 402.92 C 413.92 398.15 410.19 393.75 407.12 388.91 Z" />
<path fill="#5480c1" opacity="1.00" d=" M 702.66 420.59 C 707.98 412.41 714.50 405.13 720.81 397.73 C 719.64 401.50 717.70 405.02 716.87 408.91 C 714.71 418.46 715.75 428.31 715.49 438.02 C 715.49 443.85 714.71 449.63 714.19 455.43 C 718.58 450.70 721.81 445.07 725.25 439.65 C 730.09 432.12 734.99 424.47 741.61 418.37 C 743.36 417.10 745.26 416.06 747.18 415.07 C 746.64 415.86 746.13 416.67 745.58 417.45 C 738.44 425.50 733.02 434.83 728.61 444.61 C 725.19 451.47 721.01 458.07 715.24 463.20 C 709.21 468.04 707.95 476.18 703.56 482.26 C 701.43 485.64 699.06 488.85 696.75 492.11 C 694.84 492.38 692.93 492.59 691.02 492.79 C 692.13 489.35 693.18 485.86 693.37 482.23 C 692.92 474.67 689.77 467.55 689.71 459.95 C 689.31 445.79 695.04 432.26 702.66 420.59 M 702.34 469.03 C 702.31 473.10 701.53 477.11 701.27 481.16 C 708.83 464.05 703.25 444.87 707.73 427.16 C 703.23 440.58 702.33 454.96 702.34 469.03 Z" />
<path fill="#5480c1" opacity="1.00" d=" M 249.12 400.13 C 258.59 410.33 267.61 421.05 274.69 433.09 C 278.56 439.88 281.70 447.16 283.47 454.79 C 285.87 465.02 285.79 475.63 283.71 485.90 C 282.50 492.54 282.79 499.57 285.95 505.65 C 279.79 505.69 273.62 505.62 267.47 505.92 C 261.35 499.55 254.41 493.57 245.68 491.26 C 233.33 487.15 220.36 485.56 207.79 482.33 C 202.41 480.92 196.93 479.05 192.69 475.32 C 188.67 471.78 186.09 466.99 183.70 462.28 C 180.14 455.12 176.73 447.88 173.27 440.66 C 172.66 439.31 172.09 437.93 171.54 436.57 C 172.94 437.52 174.32 438.49 175.69 439.50 C 188.11 449.21 203.44 454.34 218.92 456.46 L 219.90 456.62 C 229.62 458.25 240.42 461.20 246.13 469.97 C 250.73 477.29 253.35 485.94 259.80 492.02 C 265.42 497.51 271.63 503.08 279.19 505.61 C 275.99 500.45 272.29 495.63 269.49 490.23 C 266.60 485.54 265.36 479.67 260.75 476.22 C 253.94 470.46 249.10 462.84 245.16 454.94 C 241.21 447.11 237.33 439.13 231.67 432.36 C 229.27 429.54 226.76 426.81 224.74 423.71 C 226.51 424.45 228.26 425.25 229.99 426.09 C 231.87 427.85 233.65 429.72 235.40 431.62 C 240.36 437.13 244.43 443.36 248.46 449.56 C 252.32 455.56 256.09 461.66 260.79 467.04 C 259.05 457.44 258.04 447.72 257.74 437.97 C 257.30 425.00 256.19 411.41 249.12 400.13 M 268.35 453.01 C 269.31 467.50 269.19 482.68 275.78 496.01 C 274.31 490.11 273.29 484.10 273.06 478.01 C 272.44 463.80 270.27 449.63 266.33 435.96 C 266.87 441.65 268.06 447.28 268.35 453.01 M 185.88 449.23 C 187.06 451.57 189.79 452.15 192.06 452.95 C 190.47 451.04 188.18 450.01 185.88 449.23 M 206.78 470.19 C 213.52 473.63 221.12 474.81 228.07 477.73 C 234.66 480.13 240.74 483.63 246.91 486.91 C 236.69 478.44 224.70 472.13 211.99 468.34 C 209.02 467.43 205.95 466.55 203.41 464.70 C 199.75 462.13 197.32 458.30 194.20 455.18 C 196.94 461.15 200.72 467.14 206.78 470.19 Z" />
<path fill="#5480c1" opacity="1.00" d=" M 490.54 406.55 C 495.01 406.15 499.80 404.86 504.13 406.51 C 506.44 408.59 506.77 412.07 507.54 414.96 C 508.64 422.19 510.59 429.25 512.60 436.28 C 512.82 436.54 513.27 437.06 513.50 437.32 L 513.53 437.42 C 513.86 445.22 517.64 452.44 518.64 460.16 C 513.49 459.88 508.44 460.75 503.46 461.95 C 496.30 444.30 491.63 425.59 490.54 406.55 Z" />
<path fill="#5480c1" opacity="1.00" d=" M 751.41 407.42 C 753.64 406.52 756.22 408.61 755.79 410.99 C 755.81 413.66 752.25 416.08 750.11 413.92 C 747.72 412.12 748.45 408.12 751.41 407.42 Z" />
<path fill="#5480c1" opacity="1.00" d=" M 217.32 416.39 C 219.40 414.27 223.48 416.18 223.49 419.06 C 223.62 421.28 222.41 423.74 220.07 424.23 C 216.35 424.04 214.95 418.86 217.32 416.39 Z" />
<path fill="#5480c1" opacity="1.00" d=" M 785.06 432.29 C 790.83 429.18 796.03 425.18 801.14 421.10 C 799.96 424.46 798.50 427.70 796.96 430.91 C 795.56 433.92 794.08 436.89 792.71 439.91 C 790.14 445.39 787.74 451.12 783.57 455.61 C 780.05 459.42 775.26 461.72 770.46 463.46 C 757.53 468.03 743.91 470.39 731.11 475.36 C 726.15 477.29 721.16 479.47 717.19 483.10 C 714.09 485.73 711.10 488.48 708.31 491.44 C 705.41 491.50 702.52 491.58 699.63 491.71 C 702.62 488.35 706.69 486.29 710.07 483.39 C 714.69 479.59 719.02 475.29 722.00 470.05 C 724.99 464.95 726.70 459.06 730.67 454.56 C 734.51 450.13 740.00 447.66 745.32 445.47 C 758.78 441.77 772.77 439.27 785.06 432.29 M 781.88 436.89 C 784.12 436.57 786.10 435.42 787.96 434.18 C 785.57 434.06 783.56 435.34 781.88 436.89 M 765.63 451.51 C 752.75 455.88 740.54 462.32 729.99 470.94 C 736.74 467.76 743.04 463.63 750.07 461.01 C 756.79 458.09 764.22 456.57 770.27 452.24 C 774.76 449.05 777.53 444.12 779.82 439.24 C 775.67 443.91 771.91 449.54 765.63 451.51 Z" />
<path fill="#5480c1" opacity="1.00" d=" M 350.91 460.76 C 356.76 459.97 362.55 461.19 368.24 462.41 L 368.23 463.11 C 367.59 471.55 366.68 480.03 364.64 488.26 C 364.33 489.62 364.22 490.96 364.04 492.36 C 363.13 496.92 361.87 501.41 360.77 505.93 C 356.98 506.43 352.87 507.39 349.22 505.81 C 344.90 503.74 347.03 498.17 346.32 494.39 C 346.54 491.57 346.80 488.75 347.36 485.98 L 347.48 485.42 C 347.64 485.09 347.98 484.42 348.14 484.09 C 349.35 476.36 350.00 468.54 350.91 460.76 Z" />
<path fill="#5480c1" opacity="1.00" d=" M 503.98 462.72 C 509.50 460.73 515.41 460.55 521.22 460.70 C 522.76 471.77 523.69 482.90 524.99 493.99 C 525.40 497.66 526.88 502.04 524.22 505.22 C 520.33 507.46 515.56 506.74 511.41 505.72 C 507.74 491.63 504.95 477.27 503.98 462.72 Z" />
<path fill="#5480c1" opacity="1.00" d=" M 393.37 463.32 C 393.95 463.90 393.95 463.90 393.37 463.32 Z" />
<path fill="#5480c1" opacity="1.00" d=" M 540.86 481.94 C 551.26 480.98 561.72 480.41 572.16 480.40 C 574.99 484.16 575.50 489.42 576.27 494.04 C 576.52 496.88 575.65 501.40 572.07 501.49 C 556.44 503.46 540.76 504.90 525.05 505.99 C 526.97 502.26 526.32 498.10 525.78 494.15 C 529.88 493.39 534.16 492.24 537.32 489.36 C 539.40 487.41 540.07 484.55 540.86 481.94 Z" />
<path fill="#5480c1" opacity="1.00" d=" M 602.30 486.98 C 603.38 486.24 604.62 485.54 606.01 485.91 C 617.09 487.05 628.23 487.14 639.36 487.21 C 640.30 492.18 641.51 497.12 641.70 502.21 C 634.70 504.54 627.26 504.73 619.99 505.36 C 610.99 505.70 601.97 506.91 592.97 506.09 C 590.11 505.64 586.87 505.35 584.76 503.17 C 582.66 500.45 583.91 496.35 586.52 494.45 C 591.15 490.71 597.53 490.47 602.30 486.98 Z" />
</g>
<g id="#d6e3f4ff">
<path fill="#d6e3f4" opacity="1.00" d=" M 458.65 67.49 C 479.90 65.27 501.88 66.39 522.07 73.88 C 529.58 76.75 537.01 80.19 543.31 85.27 C 538.74 85.62 534.09 87.01 529.55 85.75 C 522.93 83.94 515.36 83.45 509.26 87.09 C 509.34 88.53 509.42 89.98 509.52 91.42 C 498.79 94.84 488.14 98.54 477.71 102.78 C 471.17 105.39 464.29 108.05 457.11 107.38 C 451.90 107.06 445.79 106.94 441.53 110.30 C 439.94 117.21 443.88 124.24 449.32 128.33 C 448.52 129.09 447.68 129.81 446.82 130.50 C 444.49 130.12 443.15 127.59 440.80 127.19 C 435.68 126.27 429.93 127.36 426.20 131.18 C 422.63 134.85 419.91 139.28 417.59 143.81 C 415.57 148.05 414.74 153.92 418.48 157.47 C 422.65 161.23 428.82 160.81 433.65 158.63 C 434.67 160.89 435.72 163.14 436.95 165.29 C 435.69 167.73 434.75 170.33 434.24 173.04 C 428.89 198.48 427.68 224.62 427.85 250.55 C 426.60 251.13 424.62 251.33 424.49 253.03 C 423.57 258.35 426.00 263.57 425.41 268.90 C 425.11 272.30 425.05 275.71 425.20 279.12 C 410.06 278.79 394.91 278.17 379.81 276.87 C 381.07 273.96 381.00 270.83 379.21 268.15 C 379.83 263.85 380.71 259.36 379.65 255.07 C 378.09 251.42 373.50 250.56 369.96 251.01 C 367.12 251.45 363.63 252.36 362.49 255.33 C 360.74 259.09 361.20 263.32 362.27 267.20 C 362.11 278.25 357.85 288.95 359.00 300.09 C 359.06 303.74 362.90 305.35 366.07 305.15 C 374.11 304.99 382.16 305.27 390.20 305.27 C 389.60 321.07 381.78 335.37 379.81 350.91 C 379.11 351.55 378.40 352.15 377.65 352.73 C 375.88 358.21 374.68 363.85 373.23 369.42 C 371.83 367.16 370.57 364.81 369.63 362.34 C 359.53 337.15 355.25 310.04 353.32 283.10 C 351.74 266.10 352.40 249.00 352.37 231.95 C 354.24 199.61 357.61 166.70 369.87 136.43 C 377.70 142.84 385.74 148.99 393.67 155.28 C 390.33 146.95 387.52 138.43 384.40 130.02 C 388.53 127.76 392.49 125.08 395.63 121.54 C 404.56 111.79 408.18 98.25 408.32 85.28 C 411.78 83.48 415.08 81.37 418.47 79.43 C 430.91 72.82 444.74 69.27 458.65 67.49 Z" />
<path fill="#d6e3f4" opacity="1.00" d=" M 213.25 72.46 C 216.45 71.81 219.74 72.08 222.98 72.07 C 242.97 72.17 262.97 72.05 282.97 72.12 C 283.39 97.76 282.98 123.41 283.15 149.05 C 283.16 198.62 283.05 248.18 283.24 297.74 C 297.53 297.85 311.83 297.55 326.12 297.91 C 326.53 308.92 326.18 319.95 326.32 330.96 C 326.16 339.56 326.60 348.18 326.05 356.76 C 316.71 356.82 307.36 356.73 298.01 356.76 C 294.06 356.77 289.98 356.28 286.19 357.69 C 278.93 344.23 271.49 330.84 265.22 316.87 C 266.88 337.64 262.07 358.27 263.54 379.02 C 264.75 397.69 273.59 414.60 282.30 430.75 C 279.92 430.91 277.54 431.06 275.18 431.33 C 275.06 431.77 274.81 432.65 274.69 433.09 C 267.61 421.05 258.59 410.33 249.12 400.13 C 256.19 411.41 257.30 425.00 257.74 437.97 C 258.04 447.72 259.05 457.44 260.79 467.04 C 256.09 461.66 252.32 455.56 248.46 449.56 C 250.63 443.63 246.37 438.40 242.89 434.08 C 246.90 434.54 250.92 434.86 254.95 434.94 C 254.24 433.72 253.59 432.47 252.73 431.36 C 246.98 430.85 241.14 430.92 235.40 431.62 C 233.65 429.72 231.87 427.85 229.99 426.09 C 234.14 426.30 239.43 425.92 241.59 421.74 C 242.83 416.27 237.53 410.46 231.98 411.01 C 228.98 411.02 226.58 412.99 224.26 414.62 C 224.63 408.56 224.04 401.22 218.62 397.41 C 215.70 395.18 212.00 396.46 209.00 397.77 C 208.81 392.12 209.04 386.46 208.67 380.82 C 199.99 391.78 202.91 407.29 208.40 419.02 C 205.75 421.80 202.38 424.67 202.96 428.96 C 207.83 429.53 212.10 427.07 216.29 425.02 C 215.64 428.51 213.50 432.18 215.31 435.68 C 217.88 442.30 219.16 449.36 218.92 456.46 C 203.44 454.34 188.11 449.21 175.69 439.50 C 179.60 438.62 183.55 437.96 187.50 437.28 C 181.28 424.41 170.58 414.51 159.12 406.31 C 170.09 405.61 180.62 409.48 190.29 414.24 C 188.95 411.09 187.25 408.11 185.93 404.95 C 183.40 398.57 183.71 390.69 188.26 385.28 C 193.35 378.78 200.97 375.07 208.75 372.83 C 208.98 367.55 208.95 362.25 208.82 356.97 C 202.89 356.54 196.94 356.78 191.00 356.75 C 149.34 356.76 107.68 356.73 66.02 356.76 C 62.78 356.74 59.52 356.97 56.30 356.59 C 55.42 355.23 55.84 353.45 55.67 351.93 C 55.74 336.96 55.68 321.99 55.67 307.02 C 55.53 304.74 56.42 302.64 57.72 300.83 C 100.14 238.53 142.38 176.11 184.79 113.80 C 192.52 101.89 200.99 90.48 208.63 78.50 C 210.06 76.42 211.28 74.09 213.25 72.46 M 207.60 164.64 C 200.32 180.08 191.16 194.53 181.58 208.62 C 164.84 233.60 148.49 258.83 131.79 283.83 C 128.89 288.47 125.42 292.77 122.99 297.68 C 151.56 297.81 180.13 297.76 208.71 297.67 C 209.25 265.12 208.35 232.53 209.67 199.98 C 210.25 193.32 210.27 186.63 210.49 179.96 C 210.97 172.91 211.76 165.87 211.75 158.80 C 209.38 159.86 208.73 162.55 207.60 164.64 Z" />
<path fill="#d6e3f4" opacity="1.00" d=" M 786.29 73.31 C 787.30 71.70 789.42 72.28 791.02 72.07 C 813.00 72.19 834.99 72.01 856.98 72.16 C 857.42 147.33 856.87 222.52 857.25 297.69 C 871.55 297.89 885.86 297.57 900.16 297.89 C 900.51 309.59 900.21 321.30 900.32 333.00 C 900.20 340.94 900.61 348.88 900.01 356.81 C 885.73 356.91 871.43 356.43 857.16 357.00 C 857.04 381.69 857.31 406.40 857.00 431.09 C 851.88 431.16 846.75 430.95 841.64 431.40 C 840.00 440.46 836.19 448.87 832.19 457.09 C 847.30 454.28 863.67 449.13 878.52 455.79 C 882.16 450.28 884.33 443.62 883.11 436.99 C 882.51 431.26 878.95 426.59 875.96 421.90 C 885.78 423.87 895.47 429.59 899.89 438.90 C 900.42 436.63 900.78 434.32 900.79 431.99 C 900.85 424.57 901.35 417.16 901.36 409.74 C 907.17 411.18 910.24 417.49 910.38 423.08 C 910.50 432.79 905.35 442.29 907.88 452.02 C 908.60 455.60 911.73 458.17 915.30 458.63 C 923.59 459.95 931.64 456.29 938.67 452.27 C 943.82 457.69 951.39 459.26 958.59 459.53 C 958.23 492.68 957.95 525.84 957.79 559.00 L 0.00 559.00 L 0.00 485.16 C 16.61 478.95 34.18 475.08 51.96 474.95 C 61.49 474.65 71.24 476.07 80.57 473.52 C 86.87 471.76 91.20 466.01 97.65 464.62 C 105.66 463.00 114.12 464.57 121.95 461.89 C 124.60 461.04 126.78 458.14 125.66 455.32 C 123.95 450.79 120.52 447.13 116.79 444.17 C 104.93 434.72 89.62 431.24 74.88 429.54 C 88.78 425.92 103.40 427.85 117.21 430.98 C 114.87 428.57 112.33 426.35 110.13 423.82 C 105.70 418.74 103.74 411.62 105.02 405.00 C 106.38 396.54 113.03 390.03 120.10 385.82 C 121.02 391.41 120.98 397.15 122.42 402.66 C 123.86 408.23 126.25 413.64 129.89 418.12 C 137.06 426.61 146.51 433.16 152.13 442.92 C 155.51 448.03 156.81 454.07 158.37 459.90 C 161.00 451.99 166.07 445.00 173.27 440.66 C 176.73 447.88 180.14 455.12 183.70 462.28 C 186.09 466.99 188.67 471.78 192.69 475.32 C 196.93 479.05 202.41 480.92 207.79 482.33 C 220.36 485.56 233.33 487.15 245.68 491.26 C 242.56 493.50 238.55 492.95 234.94 493.38 C 222.98 494.45 211.02 495.70 199.01 496.06 C 184.99 496.48 170.89 495.13 157.29 491.66 C 142.76 487.95 127.58 488.58 112.74 489.54 C 92.95 491.48 73.15 494.36 53.92 499.54 C 71.03 501.22 88.21 501.93 105.38 502.49 C 115.73 502.76 125.74 505.63 135.62 508.46 C 159.49 515.67 183.24 523.75 207.91 527.82 C 216.84 529.39 225.89 530.38 234.96 530.27 C 249.14 530.39 262.77 525.14 276.98 525.62 C 297.17 524.86 317.10 528.61 337.04 531.15 C 359.18 534.07 381.65 535.39 403.91 533.00 C 440.94 529.00 476.88 518.38 513.89 514.20 C 526.91 513.11 540.16 513.14 553.01 515.78 C 566.81 518.60 580.99 518.68 594.98 517.55 C 623.38 515.29 651.72 519.36 680.04 521.04 C 697.37 521.64 714.97 522.11 731.97 518.07 C 746.42 514.49 761.24 512.76 775.99 511.01 C 817.86 506.66 859.91 504.24 901.96 502.52 C 896.02 499.79 889.39 499.53 883.01 498.77 C 864.05 497.31 845.01 497.49 826.04 496.34 C 801.89 495.12 777.80 492.45 754.02 488.08 C 744.10 486.19 734.09 484.70 724.00 484.13 C 721.70 483.97 719.43 483.57 717.19 483.10 C 721.16 479.47 726.15 477.29 731.11 475.36 C 743.91 470.39 757.53 468.03 770.46 463.46 C 775.26 461.72 780.05 459.42 783.57 455.61 C 787.74 451.12 790.14 445.39 792.71 439.91 C 792.82 440.31 793.04 441.11 793.15 441.52 C 798.81 442.35 804.35 443.76 809.86 445.24 C 814.06 446.14 819.29 447.06 822.74 443.81 C 825.48 440.46 825.10 435.44 823.22 431.78 C 821.98 430.97 820.36 431.29 818.98 431.12 C 811.64 431.03 804.29 431.37 796.96 430.91 C 798.50 427.70 799.96 424.46 801.14 421.10 C 796.03 425.18 790.83 429.18 785.06 432.29 C 783.97 431.08 782.67 429.84 782.93 428.05 C 782.77 404.37 783.09 380.68 782.80 356.99 C 756.78 356.48 730.73 356.82 704.70 356.80 C 702.91 346.25 701.46 335.61 701.70 324.88 C 697.15 336.15 691.29 346.81 685.70 357.59 C 681.55 356.33 677.19 356.75 672.93 356.73 C 658.75 356.79 644.57 356.73 630.39 356.71 C 638.09 330.48 646.79 304.08 647.68 276.50 C 652.44 271.48 655.49 265.17 659.70 259.72 C 701.92 197.60 744.07 135.41 786.29 73.31 M 781.96 164.01 C 771.99 185.38 758.16 204.57 745.25 224.20 C 734.11 240.81 723.36 257.66 712.18 274.25 C 707.27 282.14 701.49 289.50 697.02 297.66 C 725.60 297.85 754.19 297.72 782.78 297.73 C 783.33 260.80 781.87 223.80 784.59 186.94 C 784.51 177.54 785.63 168.19 785.84 158.81 C 783.54 159.56 782.98 162.11 781.96 164.01 Z" />
<path fill="#d6e3f4" opacity="1.00" d=" M 546.06 152.08 C 554.20 138.95 565.91 127.76 570.46 112.62 C 582.50 128.82 589.27 148.28 594.37 167.63 C 595.29 170.82 595.76 174.11 595.94 177.42 C 579.98 167.70 562.71 160.48 546.06 152.08 Z" />
<path fill="#d6e3f4" opacity="1.00" d=" M 470.94 115.76 C 475.32 115.50 479.59 114.05 484.01 114.49 C 493.67 115.24 503.34 116.04 513.03 116.43 C 515.37 119.73 519.50 119.44 523.00 118.67 C 524.99 117.91 526.09 120.17 527.46 121.12 C 522.94 126.97 517.41 131.95 512.38 137.35 C 510.66 139.09 509.14 141.24 506.69 141.95 C 496.72 127.53 475.41 124.18 460.22 131.80 C 458.28 130.06 456.20 128.42 453.70 127.56 C 452.87 123.56 447.68 121.29 449.02 116.77 L 450.55 115.69 C 449.93 120.68 454.06 124.81 458.38 126.41 C 460.53 124.87 461.29 122.06 463.38 120.43 C 465.53 118.29 468.67 117.70 470.94 115.76 Z" />
<path fill="#d6e3f4" opacity="1.00" d=" M 528.23 259.68 C 532.60 264.23 536.08 269.83 537.80 275.90 C 533.82 293.42 528.59 310.71 522.35 327.56 C 522.03 323.78 522.63 320.04 523.41 316.36 C 525.96 300.03 527.11 283.50 527.30 266.98 C 527.35 264.52 527.71 262.08 528.23 259.68 Z" />
<path fill="#d6e3f4" opacity="1.00" d=" M 565.49 368.31 C 568.59 361.49 571.41 354.51 575.18 348.03 C 574.61 360.86 574.56 373.74 575.98 386.53 C 573.24 389.36 571.07 392.65 568.95 395.95 C 567.77 388.20 566.37 380.49 564.46 372.89 C 563.86 371.27 564.97 369.77 565.49 368.31 Z" />
<path fill="#d6e3f4" opacity="1.00" d=" M 499.09 368.55 C 506.01 364.22 509.76 356.86 514.61 350.62 C 513.15 357.04 510.22 363.17 510.28 369.89 C 509.53 390.41 518.59 409.38 523.35 428.93 C 519.55 429.94 515.76 430.99 512.19 432.66 C 509.56 424.24 508.73 415.40 505.98 407.03 C 507.30 397.86 503.29 389.22 501.64 380.39 C 501.03 376.39 500.02 372.48 499.09 368.55 Z" />
<path fill="#d6e3f4" opacity="1.00" d=" M 726.32 385.76 C 731.67 391.80 731.43 400.12 732.53 407.60 C 731.14 409.85 730.50 412.44 730.18 415.05 C 728.90 423.32 724.45 431.11 725.25 439.65 C 721.81 445.07 718.58 450.70 714.19 455.43 C 714.71 449.63 715.49 443.85 715.49 438.02 C 715.75 428.31 714.71 418.46 716.87 408.91 C 717.70 405.02 719.64 401.50 720.81 397.73 C 721.95 393.45 723.69 389.35 726.32 385.76 Z" />
<path fill="#d6e3f4" opacity="1.00" d=" M 329.63 398.33 C 342.55 397.68 355.22 402.95 365.05 411.13 C 363.56 415.93 363.22 421.00 361.85 425.83 C 360.42 431.05 359.02 436.29 357.62 441.52 C 354.32 437.74 351.13 433.77 346.97 430.87 C 340.37 426.15 332.55 423.73 324.91 421.27 C 333.00 420.76 341.12 421.65 349.07 423.15 C 352.95 423.82 356.64 425.55 360.62 425.69 C 361.20 424.08 359.57 423.24 358.61 422.32 C 351.99 416.98 345.33 411.68 338.77 406.26 C 335.61 403.75 332.33 401.35 329.63 398.33 Z" />
<path fill="#d6e3f4" opacity="1.00" d=" M 691.84 423.93 C 696.00 416.13 699.83 408.14 702.84 399.81 C 704.71 406.71 702.57 413.65 702.66 420.59 C 695.04 432.26 689.31 445.79 689.71 459.95 C 689.77 467.55 692.92 474.67 693.37 482.23 C 689.57 482.13 685.78 482.01 681.99 481.87 C 682.45 469.61 682.20 457.28 683.84 445.10 C 684.78 437.50 688.31 430.61 691.84 423.93 Z" />
<path fill="#d6e3f4" opacity="1.00" d=" M 209.11 410.09 C 211.13 412.29 213.13 414.52 215.09 416.79 C 213.07 417.48 211.04 418.15 209.02 418.80 C 208.87 415.90 208.91 412.98 209.11 410.09 Z" />
<path fill="#d6e3f4" opacity="1.00" d=" M 584.70 424.24 C 589.58 443.27 595.49 462.06 599.57 481.29 C 592.38 481.16 585.19 481.56 578.01 481.16 C 577.68 480.06 577.38 478.97 577.09 477.88 C 575.58 467.84 574.78 457.64 574.17 447.54 C 575.19 444.36 575.94 441.11 576.85 437.90 C 578.28 432.74 581.97 428.71 584.70 424.24 Z" />
<path fill="#d6e3f4" opacity="1.00" d=" M 635.35 441.79 C 643.45 442.47 649.88 448.72 658.01 449.03 C 661.25 448.88 666.11 448.06 666.48 444.07 C 668.92 451.67 673.78 458.18 676.54 465.65 C 678.42 470.64 677.76 476.10 677.00 481.25 C 665.95 481.56 654.90 481.20 643.85 481.16 C 642.80 467.72 639.20 454.65 635.35 441.79 Z" />
<path fill="#d6e3f4" opacity="1.00" d=" M 715.24 463.20 C 721.01 458.07 725.19 451.47 728.61 444.61 C 734.17 445.06 739.74 445.29 745.32 445.47 C 740.00 447.66 734.51 450.13 730.67 454.56 C 726.70 459.06 724.99 464.95 722.00 470.05 C 719.02 475.29 714.69 479.59 710.07 483.39 C 707.89 483.02 705.72 482.64 703.56 482.26 C 707.95 476.18 709.21 468.04 715.24 463.20 Z" />
<path fill="#d6e3f4" opacity="1.00" d=" M 219.90 456.62 C 226.06 455.14 230.80 450.69 235.77 447.05 C 238.83 450.77 241.24 455.05 244.93 458.22 C 244.99 457.40 245.10 455.76 245.16 454.94 C 249.10 462.84 253.94 470.46 260.75 476.22 C 265.36 479.67 266.60 485.54 269.49 490.23 C 267.19 492.91 262.92 491.35 259.80 492.02 C 253.35 485.94 250.73 477.29 246.13 469.97 C 240.42 461.20 229.62 458.25 219.90 456.62 Z" />
<path fill="#d6e3f4" opacity="1.00" d=" M 517.45 452.19 C 521.35 451.36 525.26 450.58 529.19 449.85 C 532.52 460.46 536.15 470.98 539.68 481.52 C 534.63 482.65 529.45 482.30 524.33 482.24 C 523.62 474.95 522.83 467.67 521.75 460.43 C 521.16 460.25 519.98 459.91 519.38 459.74 C 518.78 457.21 518.13 454.70 517.45 452.19 Z" />
<path fill="#d6e3f4" opacity="1.00" d=" M 306.80 451.88 C 322.75 452.72 338.86 455.53 354.73 452.35 C 354.07 454.85 353.42 457.36 352.76 459.86 C 352.18 460.01 351.02 460.31 350.44 460.46 C 349.23 468.75 348.55 477.11 347.48 485.42 L 347.36 485.98 C 331.15 483.39 314.86 487.09 298.75 488.78 C 298.02 483.87 297.62 478.77 298.94 473.93 C 300.94 466.37 304.61 459.38 306.80 451.88 Z" />
<path fill="#d6e3f4" opacity="1.00" d=" M 283.47 454.79 C 285.82 454.12 288.17 453.46 290.52 452.82 C 292.47 464.84 292.95 477.03 294.11 489.15 C 290.72 489.78 287.29 490.12 283.86 490.22 C 283.78 488.77 283.74 487.34 283.71 485.90 C 285.79 475.63 285.87 465.02 283.47 454.79 Z" />
</g>
<g id="#f7be7eff">
<path fill="#f7be7e" opacity="1.00" d=" M 475.46 104.33 C 486.66 99.84 497.97 95.55 509.56 92.17 C 509.88 100.12 510.04 108.22 512.75 115.80 C 503.80 115.44 494.86 114.77 485.93 114.01 C 480.89 113.63 475.70 113.99 470.94 115.76 C 465.35 117.18 461.08 121.21 458.18 126.05 C 455.86 124.31 453.16 122.75 451.82 120.07 C 450.78 118.20 451.51 116.06 451.65 114.08 C 449.98 115.25 447.61 116.51 448.25 118.99 C 448.41 122.30 452.33 123.98 452.64 127.08 C 452.53 129.27 449.87 127.75 448.91 127.11 C 444.26 123.60 441.39 117.74 441.80 111.90 C 441.63 109.96 443.64 109.55 445.05 109.03 C 448.93 107.68 453.08 107.63 457.13 108.00 C 463.45 108.57 469.64 106.58 475.46 104.33 Z" />
<path fill="#f7be7e" opacity="1.00" d=" M 451.27 146.74 C 457.07 144.73 463.88 146.56 467.67 151.45 C 468.20 151.43 469.25 151.41 469.77 151.40 C 471.85 154.15 474.07 156.85 476.83 158.96 C 480.40 161.84 484.87 163.91 487.14 168.11 C 490.59 173.08 490.38 179.87 494.95 184.15 C 493.13 184.23 491.31 184.29 489.50 184.32 C 488.75 183.15 487.25 183.33 486.08 183.02 C 477.72 181.21 470.47 176.43 462.97 172.59 C 459.69 173.17 458.74 177.40 455.86 178.91 C 452.94 181.10 448.94 179.88 446.72 177.30 C 441.52 171.66 437.08 165.23 434.09 158.14 C 436.52 156.24 438.55 153.66 441.48 152.49 C 444.62 151.45 447.38 153.70 450.10 154.88 C 452.11 155.37 453.33 153.14 454.80 152.19 C 453.44 150.49 452.25 148.67 451.27 146.74 Z" />
<path fill="#f7be7e" opacity="1.00" d=" M 409.69 341.08 C 410.65 329.39 414.05 318.06 418.08 307.10 C 427.99 308.01 437.92 308.99 447.88 308.64 C 439.36 323.30 428.80 336.95 422.92 353.01 C 421.12 357.79 420.08 362.88 420.26 368.01 C 420.52 375.50 420.10 383.07 418.27 390.36 C 413.23 387.51 416.50 381.45 414.65 377.09 C 411.61 380.31 408.78 383.75 406.34 387.44 C 403.89 391.01 406.42 395.33 406.02 399.26 C 403.15 398.55 401.45 395.87 401.19 393.06 C 401.14 389.97 397.54 387.44 399.64 384.41 C 397.31 382.35 396.85 378.91 398.16 376.15 C 401.01 370.02 407.47 366.19 409.37 359.52 C 410.82 353.46 409.17 347.22 409.69 341.08 Z" />
<path fill="#f7be7e" opacity="1.00" d=" M 439.99 406.59 C 456.73 408.05 473.46 409.66 490.20 411.21 C 490.58 415.17 491.07 419.12 491.67 423.05 C 474.81 424.73 458.50 429.97 443.27 437.29 C 439.44 439.41 435.08 437.61 431.00 437.79 C 428.73 437.48 425.83 438.42 424.19 436.38 C 423.33 431.65 422.66 426.90 422.02 422.15 C 430.84 422.19 438.50 415.12 439.99 406.59 Z" />
<path fill="#f7be7e" opacity="1.00" d=" M 472.97 426.87 C 479.09 425.06 485.49 424.66 491.72 423.39 C 493.55 434.19 496.31 444.83 500.14 455.09 C 501.43 458.70 503.39 462.16 503.57 466.08 C 504.70 479.74 507.44 493.21 510.92 506.46 C 485.25 504.03 459.56 501.84 433.90 499.42 C 433.87 498.91 433.81 497.89 433.78 497.38 C 433.71 496.23 433.62 495.09 433.32 494.00 C 431.00 482.57 429.69 470.96 427.71 459.48 C 427.68 458.28 427.62 457.09 427.52 455.91 C 431.44 447.90 437.28 440.03 445.79 436.59 C 454.59 432.67 463.62 429.23 472.97 426.87 Z" />
<path fill="#f7be7e" opacity="1.00" d=" M 424.82 441.17 C 424.81 440.40 424.78 438.86 424.77 438.09 C 429.14 438.39 433.57 438.25 437.89 439.19 C 434.42 442.07 429.89 443.25 425.99 445.44 C 425.62 444.29 425.29 443.13 424.99 441.97 L 424.82 441.17 Z" />
<path fill="#f7be7e" opacity="1.00" d=" M 425.59 446.49 C 429.11 444.49 432.63 442.37 436.60 441.36 C 436.28 444.40 432.99 445.15 431.54 447.43 C 429.98 449.74 428.80 452.30 426.97 454.42 C 426.68 452.13 426.24 449.85 425.81 447.60 L 425.59 446.49 Z" />
</g>
<g id="#aac6e8ff">
<path fill="#aac6e8" opacity="1.00" d=" M 484.88 157.51 C 490.79 150.72 498.33 145.18 506.95 142.43 C 516.66 149.38 527.12 155.52 538.50 159.32 C 546.04 161.80 554.21 163.34 562.08 161.49 C 563.85 160.92 565.40 162.18 566.96 162.83 C 584.93 171.50 602.76 180.97 618.11 193.88 C 621.07 196.82 625.50 198.98 626.81 203.12 C 626.62 210.58 622.69 217.38 618.30 223.21 C 607.81 236.38 593.65 246.01 579.20 254.34 C 568.62 260.27 557.63 265.57 546.13 269.47 C 543.17 270.52 540.08 271.19 536.93 271.31 C 530.12 257.43 517.73 247.35 504.93 239.21 C 489.49 229.69 473.62 220.86 458.23 211.28 C 461.43 200.88 464.40 190.14 470.02 180.76 C 471.20 184.58 473.33 187.90 476.48 190.37 C 478.40 193.66 481.71 195.70 485.53 195.90 C 485.73 195.18 486.15 193.75 486.35 193.03 C 486.31 192.31 486.21 190.88 486.16 190.16 L 487.27 190.36 C 487.34 188.96 487.27 187.48 488.25 186.34 C 491.01 185.66 493.76 184.97 496.56 184.42 C 496.58 183.82 496.62 182.62 496.64 182.02 C 497.16 178.00 499.35 174.53 501.98 171.56 C 503.33 171.66 504.69 171.76 506.05 171.86 C 503.56 167.05 501.22 161.72 496.40 158.78 C 492.99 156.51 488.71 157.50 484.88 157.51 Z" />
<path fill="#aac6e8" opacity="1.00" d=" M 481.71 251.76 C 487.32 250.59 493.09 251.48 498.62 252.65 C 498.20 257.69 500.63 262.34 500.54 267.34 C 498.43 268.03 496.22 268.14 494.06 267.67 C 493.22 267.55 492.39 267.46 491.56 267.39 C 488.63 267.07 485.68 267.25 482.74 267.28 C 482.13 262.14 480.62 256.95 481.71 251.76 Z" />
<path fill="#aac6e8" opacity="1.00" d=" M 374.73 268.43 C 375.58 268.29 377.27 268.00 378.12 267.86 C 380.19 270.48 380.61 273.63 379.27 276.70 C 374.99 276.61 370.69 275.80 366.42 276.41 C 366.14 276.45 365.58 276.53 365.30 276.57 C 364.55 276.81 363.05 277.27 362.30 277.50 C 362.33 274.50 362.30 271.48 362.90 268.53 C 366.44 268.72 370.00 269.35 373.53 268.60 C 373.83 268.56 374.43 268.47 374.73 268.43 Z" />
<path fill="#aac6e8" opacity="1.00" d=" M 388.66 286.90 C 392.70 285.65 396.85 286.93 400.92 287.27 C 401.28 290.78 402.39 294.15 402.87 297.64 C 402.24 298.76 401.30 299.20 400.02 298.94 C 396.45 298.62 392.91 297.91 389.31 297.81 C 389.03 294.18 388.22 290.55 388.66 286.90 Z" />
<path fill="#aac6e8" opacity="1.00" d=" M 473.91 287.07 C 477.85 286.93 481.83 287.05 485.71 287.85 L 487.07 288.21 C 486.73 292.03 488.29 295.68 488.16 299.49 C 486.77 299.78 485.39 299.79 484.02 299.53 C 480.95 298.95 477.83 298.84 474.72 298.91 C 473.96 295.01 473.54 291.03 473.91 287.07 Z" />
<path fill="#aac6e8" opacity="1.00" d=" M 372.19 291.24 C 376.49 290.61 380.85 291.04 385.10 291.84 L 385.10 293.31 C 384.92 295.57 385.56 297.76 386.44 299.82 C 387.20 301.21 387.28 304.07 385.06 304.10 C 381.04 303.83 377.04 303.26 373.01 303.44 C 372.35 299.41 371.68 295.33 372.19 291.24 Z" />
<path fill="#aac6e8" opacity="1.00" d=" M 468.10 307.05 C 472.54 306.71 477.00 306.38 481.47 306.32 C 481.71 312.39 483.32 318.29 484.83 324.14 C 487.17 333.23 491.17 341.98 491.63 351.47 C 487.94 351.34 484.25 351.58 480.57 351.65 C 475.15 337.18 470.75 322.28 468.10 307.05 Z" />
<path fill="#aac6e8" opacity="1.00" d=" M 751.27 392.24 C 754.65 388.61 762.19 389.06 763.46 394.44 C 764.86 399.98 760.00 404.03 756.88 407.84 C 762.27 408.58 767.32 411.24 770.22 415.97 C 766.29 419.64 760.88 416.69 756.56 415.49 C 757.74 420.75 758.13 426.92 754.10 431.12 C 752.20 433.61 748.02 433.07 746.75 430.25 C 744.86 426.27 745.94 421.69 745.58 417.45 C 746.13 416.67 746.64 415.86 747.18 415.07 C 745.26 416.06 743.36 417.10 741.61 418.37 C 737.70 417.60 733.54 417.49 730.18 415.05 C 730.50 412.44 731.14 409.85 732.53 407.60 C 736.55 403.63 742.47 404.06 747.25 406.27 C 747.04 401.34 747.22 395.72 751.27 392.24 M 751.41 407.42 C 748.45 408.12 747.72 412.12 750.11 413.92 C 752.25 416.08 755.81 413.66 755.79 410.99 C 756.22 408.61 753.64 406.52 751.41 407.42 Z" />
<path fill="#aac6e8" opacity="1.00" d=" M 367.54 406.41 C 372.23 405.49 377.00 405.98 381.71 406.51 C 381.34 411.97 380.95 417.46 379.66 422.79 C 379.26 424.75 379.05 426.73 378.82 428.71 C 378.77 429.10 378.68 429.87 378.64 430.26 L 378.70 430.46 C 376.86 437.36 375.24 444.34 372.84 451.08 C 371.55 454.96 369.69 458.66 368.88 462.69 L 368.24 462.41 C 363.63 460.24 358.47 459.86 353.44 459.85 C 356.55 447.93 359.77 436.05 362.92 424.15 C 364.29 418.20 364.75 411.95 367.54 406.41 Z" />
<path fill="#aac6e8" opacity="1.00" d=" M 781.88 436.89 C 783.56 435.34 785.57 434.06 787.96 434.18 C 786.10 435.42 784.12 436.57 781.88 436.89 Z" />
<path fill="#aac6e8" opacity="1.00" d=" M 185.88 449.23 C 188.18 450.01 190.47 451.04 192.06 452.95 C 189.79 452.15 187.06 451.57 185.88 449.23 Z" />
<path fill="#aac6e8" opacity="1.00" d=" M 577.09 477.88 C 577.38 478.97 577.68 480.06 578.01 481.16 C 585.19 481.56 592.38 481.16 599.57 481.29 L 599.65 481.29 C 600.13 483.15 599.63 486.03 602.47 485.91 C 597.48 490.43 589.60 489.91 585.00 495.08 C 583.05 497.44 579.61 496.09 576.98 496.44 C 576.72 490.94 575.56 485.48 573.36 480.42 C 574.59 480.30 575.82 480.19 577.07 480.09 C 577.07 479.54 577.09 478.43 577.09 477.88 Z" />
<path fill="#aac6e8" opacity="1.00" d=" M 539.68 481.52 L 540.20 481.43 C 539.65 484.08 538.99 486.91 536.92 488.83 C 533.83 491.77 529.53 492.75 525.51 493.70 C 525.19 489.87 524.72 486.06 524.33 482.24 C 529.45 482.30 534.63 482.65 539.68 481.52 Z" />
<path fill="#aac6e8" opacity="1.00" d=" M 643.85 481.16 C 654.90 481.20 665.95 481.56 677.00 481.25 C 676.26 485.52 675.99 489.84 676.03 494.17 C 664.59 495.01 653.12 495.40 641.66 495.68 C 641.10 492.80 640.49 489.93 639.89 487.06 C 641.32 486.98 642.76 486.91 644.21 486.85 C 644.10 484.94 643.99 483.05 643.85 481.16 Z" />
<path fill="#aac6e8" opacity="1.00" d=" M 681.99 481.87 C 685.78 482.01 689.57 482.13 693.37 482.23 C 693.18 485.86 692.13 489.35 691.02 492.79 C 688.06 493.12 685.11 493.45 682.14 493.69 C 681.96 489.75 681.85 485.81 681.99 481.87 Z" />
<path fill="#aac6e8" opacity="1.00" d=" M 696.75 492.11 C 699.06 488.85 701.43 485.64 703.56 482.26 C 705.72 482.64 707.89 483.02 710.07 483.39 C 706.69 486.29 702.62 488.35 699.63 491.71 C 698.66 491.82 697.70 491.96 696.75 492.11 Z" />
<path fill="#aac6e8" opacity="1.00" d=" M 708.31 491.44 C 711.10 488.48 714.09 485.73 717.19 483.10 C 719.43 483.57 721.70 483.97 724.00 484.13 C 734.09 484.70 744.10 486.19 754.02 488.08 C 777.80 492.45 801.89 495.12 826.04 496.34 C 845.01 497.49 864.05 497.31 883.01 498.77 C 889.39 499.53 896.02 499.79 901.96 502.52 C 859.91 504.24 817.86 506.66 775.99 511.01 C 761.24 512.76 746.42 514.49 731.97 518.07 C 714.97 522.11 697.37 521.64 680.04 521.04 C 651.72 519.36 623.38 515.29 594.98 517.55 C 580.99 518.68 566.81 518.60 553.01 515.78 C 540.16 513.14 526.91 513.11 513.89 514.20 C 476.88 518.38 440.94 529.00 403.91 533.00 C 381.65 535.39 359.18 534.07 337.04 531.15 C 317.10 528.61 297.17 524.86 276.98 525.62 C 262.77 525.14 249.14 530.39 234.96 530.27 C 225.89 530.38 216.84 529.39 207.91 527.82 C 183.24 523.75 159.49 515.67 135.62 508.46 C 125.74 505.63 115.73 502.76 105.38 502.49 C 88.21 501.93 71.03 501.22 53.92 499.54 C 73.15 494.36 92.95 491.48 112.74 489.54 C 127.58 488.58 142.76 487.95 157.29 491.66 C 170.89 495.13 184.99 496.48 199.01 496.06 C 211.02 495.70 222.98 494.45 234.94 493.38 C 238.55 492.95 242.56 493.50 245.68 491.26 C 254.41 493.57 261.35 499.55 267.47 505.92 C 254.42 506.77 240.63 507.21 228.78 513.33 C 231.52 513.63 234.28 513.74 237.03 513.69 C 259.33 513.15 281.80 512.50 303.92 515.95 C 310.89 517.17 317.96 517.94 325.04 517.67 C 341.42 517.16 357.01 511.60 373.06 508.92 C 393.44 505.22 414.31 506.02 434.81 508.15 C 453.11 509.95 471.44 514.53 489.91 512.14 C 505.46 509.49 521.25 508.88 536.98 508.19 C 577.98 506.67 619.01 506.68 660.03 506.86 C 671.56 506.79 683.23 507.70 694.62 505.36 C 703.88 503.74 712.55 499.77 721.85 498.36 C 726.92 497.48 732.06 498.04 737.16 498.37 C 729.09 491.95 718.17 491.48 708.31 491.44 Z" />
<path fill="#aac6e8" opacity="1.00" d=" M 298.75 488.78 C 314.86 487.09 331.15 483.39 347.36 485.98 C 346.80 488.75 346.54 491.57 346.32 494.39 C 345.82 497.68 345.76 501.01 346.16 504.32 C 326.24 507.58 306.01 505.36 285.95 505.65 C 282.79 499.57 282.50 492.54 283.71 485.90 C 283.74 487.34 283.78 488.77 283.86 490.22 C 287.29 490.12 290.72 489.78 294.11 489.15 C 294.66 494.51 294.78 499.91 294.88 505.30 C 296.94 505.33 299.01 505.35 301.08 505.37 C 300.85 499.77 299.63 494.30 298.75 488.78 Z" />
<path fill="#aac6e8" opacity="1.00" d=" M 269.49 490.23 C 272.29 495.63 275.99 500.45 279.19 505.61 C 271.63 503.08 265.42 497.51 259.80 492.02 C 262.92 491.35 267.19 492.91 269.49 490.23 Z" />
</g>
</svg>
