<svg xmlns="http://www.w3.org/2000/svg" version="1.1" xmlns:xlink="http://www.w3.org/1999/xlink" xmlns:svgjs="http://svgjs.com/svgjs" width="512" height="512" x="0" y="0" viewBox="0 0 24 24" style="enable-background:new 0 0 512 512" xml:space="preserve" class=""><g><path d="m3.515 22.875a1 1 0 0 0 1.015-.027l7.47-4.669 7.47 4.669a1 1 0 0 0 1.53-.848v-18a3 3 0 0 0 -3-3h-12a3 3 0 0 0 -3 3v18a1 1 0 0 0 .515.875zm1.485-18.875a1 1 0 0 1 1-1h12a1 1 0 0 1 1 1v16.2l-6.47-4.044a1 1 0 0 0 -1.06 0l-6.47 4.044z" fill="#80a0b5" data-original="#000000" class=""></path></g></svg>